<?xml version="1.0" standalone="no"?>
<!DOCTYPE svg PUBLIC "-//W3C//DTD SVG 1.1//EN" "http://www.w3.org/Graphics/SVG/1.1/DTD/svg11.dtd" >
<svg xmlns="http://www.w3.org/2000/svg" xmlns:xlink="http://www.w3.org/1999/xlink" version="1.1">
<metadata>
Created by FontForge 20170731 at Mon Jun 19 02:31:59 2000
 By Aleksey,,,
Copyright (c) 1996 Microsoft Corporation. All rights reserved.
</metadata>
<defs>
<font id="TrebuchetMSDigiscreamBoldItalic" horiz-adv-x="1200" >
  <font-face 
    font-family="Trebuchet MS Digiscream"
    font-weight="700"
    font-style="italic"
    font-stretch="normal"
    units-per-em="2048"
    panose-1="2 11 7 3 2 2 2 9 2 4"
    ascent="1638"
    descent="-410"
    x-height="1071"
    cap-height="1465"
    bbox="-152 -552 2207 1926"
    underline-thickness="200"
    underline-position="-561"
    slope="-10"
    unicode-range="U+0020-F007"
  />
<missing-glyph horiz-adv-x="1024" 
d="M128 0v1923h768v-1923h-768zM256 128h512v1667h-512v-1667z" />
    <glyph glyph-name=".notdef" horiz-adv-x="1024" 
d="M128 0v1923h768v-1923h-768zM256 128h512v1667h-512v-1667z" />
    <glyph glyph-name=".null" horiz-adv-x="0" 
 />
    <glyph glyph-name="nonmarkingreturn" horiz-adv-x="617" 
 />
    <glyph glyph-name="space" unicode=" " horiz-adv-x="617" 
 />
    <glyph glyph-name="exclam" unicode="!" horiz-adv-x="752" 
d="M442 424h-132l10 279q8 216 36 368l78 420h297l-57 -330q-13 -78 -103 -348zM163 141q0 68 49 114.5t118 46.5t118 -46.5t49 -114.5q0 -69 -49 -115t-118 -46t-118 46t-49 115z" />
    <glyph glyph-name="quotedbl" unicode="&#x22;" horiz-adv-x="800" 
d="M773 1086h-200l52 381h260zM363 1086h-200l52 381h260z" />
    <glyph glyph-name="numbersign" unicode="#" 
d="M1174 910h-215l-84 -320h154v-181h-202l-120 -429h-195l118 429h-230l-118 -429h-195l118 429h-140v181h189l83 320h-157v181h205l108 396h193l-105 -396h229l108 396h193l-104 -396h167v-181zM769 910h-237l-84 -320h235z" />
    <glyph glyph-name="dollar" unicode="$" 
d="M1025 1180q-108 86 -236 86q-241 0 -241 -183q0 -81 128 -178q165 -125 182 -139q98 -86 142 -175q41 -87 41 -191q0 -187 -119 -298q-109 -103 -301 -127l-29 -156h-227l29 161q-134 21 -246 75l84 259q134 -102 311 -102q228 0 228 177q0 96 -119 192q-58 46 -245 190
q-128 125 -128 285q0 173 99 288q98 112 270 143l37 199h227l-36 -194q153 -11 229 -49z" />
    <glyph glyph-name="percent" unicode="%" horiz-adv-x="1500" 
d="M199 1027q0 189 101 320q110 144 293 144q250 0 250 -269q0 -182 -100 -312q-109 -142 -286 -142q-258 0 -258 259zM398 1058q0 -126 79 -126q91 0 136 102q35 77 35 181q0 112 -86 112q-83 0 -129 -98q-35 -77 -35 -171zM310 -20h-208l1190 1511h207zM770 240
q0 189 101 320q110 143 294 143q249 0 249 -269q0 -182 -100 -312q-109 -142 -286 -142q-258 0 -258 260zM969 271q0 -127 79 -127q91 0 137 103q34 77 34 181q0 111 -86 111q-83 0 -128 -98q-36 -76 -36 -170z" />
    <glyph glyph-name="ampersand" unicode="&#x26;" horiz-adv-x="1446" 
d="M1366 691h-250q-65 -289 -65 -396q0 -97 86 -97q69 0 177 78v-247q-101 -49 -253 -49q-124 0 -193 63q-157 -63 -337 -63t-292 90q-122 97 -122 273q0 287 229 487q-85 109 -85 216q0 219 157 338q141 107 367 107q180 0 283 -62l-65 -221q-92 84 -213 84
q-128 0 -202 -60q-82 -65 -82 -189q0 -81 64 -140h337l32 173l257 37l-41 -213h248zM512 691q-133 -138 -133 -307q0 -186 230 -186q114 0 184 36q0 45 10 99l66 358h-357z" />
    <glyph glyph-name="quotesingle" unicode="'" horiz-adv-x="617" 
d="M475 1086h-200l52 381h260z" />
    <glyph glyph-name="parenleft" unicode="(" horiz-adv-x="752" 
d="M495 -455q-356 264 -356 749q0 354 179 695q189 361 488 517v-150q-392 -414 -392 -1246q0 -230 81 -387v-178z" />
    <glyph glyph-name="parenright" unicode=")" horiz-adv-x="752" 
d="M-10 -455v179q196 149 313 559q97 339 97 652q0 251 -89 418v140q194 -82 288 -311q77 -186 77 -430q0 -361 -187.5 -690.5t-498.5 -516.5z" />
    <glyph glyph-name="asterisk" unicode="*" horiz-adv-x="885" 
d="M782 1102l-133 -11l137 -78l86 -111l-193 -144l-84 122l-53 128l-50 -114l-111 -136l-172 154l119 115l110 57l-135 12l-156 62l98 205l158 -67l71 -76l-54 155v135h236v-131l-46 -162l100 89l141 62l82 -201z" />
    <glyph glyph-name="plus" unicode="+" 
d="M713 535v-355h-201v355h-348v201h348v343h201v-343h349v-201h-349z" />
    <glyph glyph-name="comma" unicode="," horiz-adv-x="752" 
d="M228 -414l-77 101q159 117 159 263q0 49 -58 101t-58 97q0 68 57 110q52 39 122 39q73 0 125 -58.5t52 -132.5q0 -302 -322 -520z" />
    <glyph glyph-name="hyphen" unicode="-" horiz-adv-x="752" 
d="M88 476l42 235h529l-42 -235h-529z" />
    <glyph glyph-name="hyphen" unicode="&#x2010;" horiz-adv-x="752" 
d="M88 476l42 235h529l-42 -235h-529z" />
    <glyph glyph-name="period" unicode="." horiz-adv-x="752" 
d="M204 139q0 66 46.5 112.5t112.5 46.5t112.5 -46.5t46.5 -112.5t-46.5 -112.5t-112.5 -46.5t-112.5 46.5t-46.5 112.5z" />
    <glyph glyph-name="slash" unicode="/" horiz-adv-x="813" 
d="M226 0h-236l556 1471h234z" />
    <glyph glyph-name="zero" unicode="0" 
d="M91 430q0 405 143 692q183 369 547 369q403 0 403 -435q0 -429 -129 -705q-174 -371 -554 -371q-201 0 -309 126q-101 119 -101 324zM361 466q0 -257 156 -257q223 0 326 324q70 220 70 505q0 224 -166 224q-197 0 -306 -316q-80 -234 -80 -480z" />
    <glyph glyph-name="one" unicode="1" 
d="M701 0h-271l190 1024l-293 -143l40 265q356 158 486 325h120z" />
    <glyph glyph-name="two" unicode="2" 
d="M516 239h524l-45 -239h-952v84l582 683q57 67 115 133q64 81 91 150q17 46 17 86q0 133 -199 133q-123 0 -228 -150l-184 122q116 250 436 250q188 0 305 -76q139 -90 139 -268q0 -122 -98 -278q-50 -80 -181 -239z" />
    <glyph glyph-name="three" unicode="3" 
d="M852 781q164 -89 164 -285q0 -516 -608 -516q-216 0 -356 150l130 225q114 -146 259 -146q133 0 217 73q89 76 89 207q0 180 -285 180l41 222q313 0 313 223q0 148 -179 148q-102 0 -203 -81l-130 163q145 147 378 147q175 0 287 -86q123 -95 123 -265q0 -112 -70 -212
q-65 -94 -170 -147z" />
    <glyph glyph-name="four" unicode="4" 
d="M985 595h148l-39 -214h-148l-70 -381h-271l70 381h-657l29 158l974 932h126zM408 595h306l66 356z" />
    <glyph glyph-name="five" unicode="5" 
d="M1121 1242h-539l-45 -246q68 25 150 25q157 0 268 -99q116 -102 116 -257q0 -685 -635 -685q-206 0 -338 126l113 232q45 -53 116.5 -91t137.5 -38q162 0 256 128q84 114 84 282q0 92 -64 144q-59 49 -153 49q-132 0 -237 -114l-112 52l125 721h800z" />
    <glyph glyph-name="six" unicode="6" 
d="M929 1495l120 -155q-120 -45 -273 -181q-129 -115 -226 -240q70 23 153 23q179 0 283 -94q109 -98 109 -275q0 -245 -152 -418q-159 -180 -401 -180q-426 0 -426 432q0 335 243 669q250 342 570 419zM381 379q0 -175 176 -175q122 0 199 107q69 96 69 223q0 179 -165 179
q-139 0 -213 -101q-66 -89 -66 -233z" />
    <glyph glyph-name="seven" unicode="7" 
d="M469 0h-320q206 400 776 1223h-678l46 248h1021v-119q-524 -704 -845 -1352z" />
    <glyph glyph-name="eight" unicode="8" 
d="M896 788q168 -128 168 -317q0 -491 -563 -491q-180 0 -295 87q-129 96 -129 270q0 160 83 286t229 196q-125 109 -125 272q0 183 157 297q142 103 331 103q157 0 266 -79q121 -88 121 -239q0 -117 -70 -224q-67 -102 -173 -161zM708 909q164 133 164 234q0 54 -49 89
q-44 30 -101 30q-185 0 -185 -170q0 -109 171 -183zM624 685q-118 -30 -196 -110q-86 -89 -86 -204q0 -75 58 -120q54 -42 131 -42q121 0 191 67.5t70 188.5q0 134 -168 220z" />
    <glyph glyph-name="nine" unicode="9" 
d="M315 -29l-119 155q120 44 275 178q147 126 224 242q-67 -22 -154 -22q-169 0 -280 109.5t-111 278.5q0 259 146 417q150 162 407 162q205 0 318 -125q108 -119 108 -327q0 -345 -240.5 -657.5t-573.5 -410.5zM420 932q0 -179 164 -179q141 0 214 99q65 89 65 235
q0 175 -175 175q-131 0 -204 -103q-64 -91 -64 -227z" />
    <glyph glyph-name="colon" unicode=":" horiz-adv-x="752" 
d="M164 139q0 66 46.5 112.5t112.5 46.5t112.5 -46.5t46.5 -112.5t-46.5 -112.5t-112.5 -46.5t-112.5 46.5t-46.5 112.5zM290 912q0 66 46.5 112.5t112.5 46.5t112.5 -46.5t46.5 -112.5t-46.5 -112.5t-112.5 -46.5t-112.5 46.5t-46.5 112.5z" />
    <glyph glyph-name="semicolon" unicode=";" horiz-adv-x="752" 
d="M228 -414l-77 101q159 117 159 263q0 49 -58 101t-58 97q0 68 57 110q52 39 122 39q73 0 125 -58.5t52 -132.5q0 -302 -322 -520zM290 912q0 66 46.5 112.5t112.5 46.5t112.5 -46.5t46.5 -112.5t-46.5 -112.5t-112.5 -46.5t-112.5 46.5t-46.5 112.5z" />
    <glyph glyph-name="less" unicode="&#x3c;" 
d="M192 557v161l799 383v-228l-528 -236l528 -239v-228z" />
    <glyph glyph-name="equal" unicode="=" 
d="M179 745v201h898v-201h-898zM179 325v201h898v-201h-898z" />
    <glyph glyph-name="greater" unicode="&#x3e;" 
d="M265 170v228l527 239l-527 236v228l799 -383v-161z" />
    <glyph glyph-name="question" unicode="?" horiz-adv-x="813" 
d="M303 415h-146q-1 17 -9 60q-7 38 -7 60q0 132 108 253l189 177q120 112 120 220q0 109 -141 109q-111 0 -204 -71l-85 169q113 99 346 99q145 0 232 -76q93 -80 93 -222q0 -195 -145 -321l-172 -149q-102 -88 -135 -139q-44 -67 -44 -135v-34zM56 141q0 68 49 114.5
t118 46.5t118 -46.5t49 -114.5q0 -69 -49 -115t-118 -46t-118 46t-49 115z" />
    <glyph glyph-name="at" unicode="@" horiz-adv-x="1578" 
d="M905 308q-92 -90 -223 -90q-122 0 -194 66q-75 68 -75 188q0 198 134 344q138 149 334 149q99 0 279 -76q-87 -316 -87 -425q0 -71 52 -71q117 0 181 136q49 107 49 239q0 183 -123 293q-117 104 -303 104q-299 0 -486 -211q-179 -202 -179 -505q0 -204 125.5 -329
t329.5 -125q99 0 198 31q113 35 172 97l117 -143q-92 -76 -241 -122q-139 -43 -268 -43q-280 0 -456 165q-181 169 -181 447q0 395 247 654q252 264 644 264q268 0 432 -136q177 -146 177 -408q0 -218 -114 -384q-129 -188 -337 -188q-130 0 -204 79zM874 812
q-107 0 -178 -115q-63 -101 -63 -214q0 -95 82 -95q144 0 183 184q17 80 42 215q-29 25 -66 25z" />
    <glyph glyph-name="A" unicode="A" horiz-adv-x="1257" 
d="M918 0l-46 298h-524l-172 -298h-271l890 1485h93l301 -1485h-271zM760 1040l-301 -547h384z" />
    <glyph glyph-name="B" unicode="B" horiz-adv-x="1208" 
d="M961 818q82 -36 131 -137q45 -90 45 -187q0 -297 -244 -418q-178 -88 -511 -88q-131 0 -328 12l268 1463q168 24 299 24q546 0 546 -360q0 -96 -60 -183q-56 -82 -146 -126zM548 1260l-63 -358q59 -3 108 -3q131 0 214 51q99 61 99 184q0 132 -232 132q-48 0 -126 -6z
M451 714l-94 -501q46 -5 88 -5q168 0 278 50q150 67 150 215q0 245 -321 245q-50 0 -101 -4z" />
    <glyph glyph-name="C" unicode="C" horiz-adv-x="1255" 
d="M1165 1183q-114 81 -253 81q-237 0 -393 -234q-137 -207 -137 -456q0 -161 75 -260q83 -111 239 -111q230 0 361 125l-5 -229q-142 -124 -409 -124q-244 0 -389 161q-141 156 -141 402q0 389 207 658q226 294 604 294q177 0 314 -58z" />
    <glyph glyph-name="D" unicode="D" horiz-adv-x="1295" 
d="M397 0h-354l267 1462q146 26 274 26q317 0 498 -137q203 -153 203 -459q0 -407 -240.5 -649.5t-647.5 -242.5zM527 1251l-178 -1018q44 -4 80 -4q279 0 438 202q146 186 146 472q0 166 -113 264q-108 94 -276 94q-48 0 -97 -10z" />
    <glyph glyph-name="E" unicode="E" horiz-adv-x="1215" 
d="M1212 1237h-675l-61 -337h484l-41 -218h-484l-82 -454h664l-43 -228h-932l270 1465h943z" />
    <glyph glyph-name="F" unicode="F" horiz-adv-x="1199" 
d="M1240 1237h-705l-61 -337h515l-41 -218h-515l-125 -682h-267l272 1465h969z" />
    <glyph glyph-name="G" unicode="G" horiz-adv-x="1385" 
d="M1204 133q-226 -158 -553 -158q-251 0 -409 160t-158 411q0 427 230 681q239 263 662 263q224 0 333 -100l-78 -217q-147 89 -293 89q-274 0 -436 -207q-148 -189 -148 -471q0 -177 97 -279t273 -102q143 0 250 79l53 290h-203l40 218h461z" />
    <glyph glyph-name="H" unicode="H" horiz-adv-x="1389" 
d="M1162 0h-263l125 682h-582l-125 -682h-264l269 1465h264l-104 -565h582l104 565h265z" />
    <glyph glyph-name="I" unicode="I" horiz-adv-x="570" 
d="M329 0h-261l269 1465h262z" />
    <glyph glyph-name="J" unicode="J" horiz-adv-x="1021" 
d="M-3 336h229q-2 -128 107 -128q169 0 224 113q26 54 58 229l167 915h258l-168 -916q-55 -299 -161 -420q-129 -149 -408 -149q-138 0 -222 71q-90 76 -90 211q0 30 6 74z" />
    <glyph glyph-name="K" unicode="K" horiz-adv-x="1331" 
d="M815 821l364 -821h-293l-274 626l-208 -229l-74 -397h-260l269 1465h260l-121 -666l608 666h308z" />
    <glyph glyph-name="L" unicode="L" horiz-adv-x="1082" 
d="M974 0h-924l269 1465h262l-227 -1237h662z" />
    <glyph glyph-name="M" unicode="M" horiz-adv-x="1610" 
d="M1240 0l-17 793l-445 -813h-91l-145 821l-307 -801h-251l544 1465h146l148 -929l484 929h150l42 -1465h-258z" />
    <glyph glyph-name="N" unicode="N" horiz-adv-x="1352" 
d="M1113 -20h-101l-540 947l-162 -927h-258l269 1465h120l529 -908l159 908h257z" />
    <glyph glyph-name="O" unicode="O" horiz-adv-x="1438" 
d="M99 545q0 374 193 644q217 302 576 302q264 0 405.5 -139.5t141.5 -403.5q0 -413 -197 -677q-220 -296 -618 -296q-242 0 -377 168q-124 154 -124 402zM369 572q0 -153 54 -249q68 -120 209 -120q255 0 397 246q117 204 117 479q0 336 -296 336q-221 0 -362 -245
q-119 -209 -119 -447z" />
    <glyph glyph-name="P" unicode="P" horiz-adv-x="1195" 
d="M414 538l-99 -538h-266l276 1463q209 22 319 22q581 0 581 -437q0 -258 -193 -400q-173 -127 -441 -127q-90 0 -177 17zM542 1243l-87 -483q51 -14 130 -14q157 0 254 62q116 73 116 221q0 231 -262 231q-70 0 -151 -17z" />
    <glyph glyph-name="Q" unicode="Q" horiz-adv-x="1576" 
d="M781 -18q-75 -18 -163 -18q-252 0 -383 165q-119 151 -119 410q0 376 192 647q216 305 577 305q263 0 405 -141.5t142 -404.5q0 -289 -102 -516q-119 -267 -352 -376q44 -89 156 -138q97 -42 209 -42q123 0 229 72l96 -156q-128 -161 -377 -161q-171 0 -309.5 97
t-200.5 257zM386 566q0 -155 54 -251q68 -121 210 -121q256 0 397 249q116 205 116 481q0 338 -295 338q-221 0 -362 -247q-120 -210 -120 -449z" />
    <glyph glyph-name="R" unicode="R" horiz-adv-x="1277" 
d="M845 649l327 -649h-293l-280 606q-68 1 -167 8l-113 -614h-268l268 1465q292 15 383 15q210 0 343 -72q169 -92 169 -284q0 -175 -99.5 -305t-269.5 -170zM546 1240l-75 -410q59 -6 105 -6q378 0 378 240q0 117 -105 159q-67 27 -208 27q-14 0 -95 -10z" />
    <glyph glyph-name="S" unicode="S" horiz-adv-x="1027" 
d="M940 1176q-116 85 -236 85q-241 0 -241 -182q0 -75 128 -184l151 -128q61 -52 84 -75q41 -41 70 -89q60 -98 60 -201q0 -214 -170 -328q-146 -99 -371 -99q-197 0 -372 85l84 257q134 -101 311 -101q98 0 165 38q83 46 83 137q0 81 -128 183l-157 125q-60 48 -84 71
q-38 38 -67 86q-56 93 -56 196q0 208 141 327q132 111 344 111q70 0 174 -15q119 -16 167 -39z" />
    <glyph glyph-name="T" unicode="T" horiz-adv-x="1403" 
d="M1391 1237h-462l-226 -1237h-263l226 1237h-466l42 228h1191z" />
    <glyph glyph-name="U" unicode="U" horiz-adv-x="1355" 
d="M1217 451q-43 -232 -218 -358q-165 -118 -408 -118q-195 0 -322 88q-146 100 -146 286q0 53 11 113l184 1003h268l-187 -998q-5 -27 -5 -57q0 -101 64 -156q60 -51 163 -51q135 0 223 73t113 205l183 984h264z" />
    <glyph glyph-name="V" unicode="V" horiz-adv-x="1399" 
d="M674 -20h-142l-294 1485h278l175 -972l514 972h291z" />
    <glyph glyph-name="W" unicode="W" horiz-adv-x="1897" 
d="M1272 -20h-105l-159 894l-475 -894h-105l-207 1485h265l111 -888l462 888h113l136 -882l428 882h282z" />
    <glyph glyph-name="X" unicode="X" horiz-adv-x="1345" 
d="M848 741l345 -741h-287l-232 517l-394 -517h-303l588 772l-279 694l268 -1l189 -488l395 488h303z" />
    <glyph glyph-name="Y" unicode="Y" horiz-adv-x="1400" 
d="M848 648l-119 -648h-258l121 656l-345 809h271l236 -573l439 573h297z" />
    <glyph glyph-name="Z" unicode="Z" horiz-adv-x="1252" 
d="M482 228h597l-43 -228h-949v83l793 1154h-602l42 228h928v-83z" />
    <glyph glyph-name="bracketleft" unicode="[" horiz-adv-x="994" 
d="M923 1278h-263l-267 -1466h263l-43 -232h-544l353 1930h544z" />
    <glyph glyph-name="backslash" unicode="\" horiz-adv-x="978" 
d="M710 0l-539 1471h216l540 -1471h-217z" />
    <glyph glyph-name="bracketright" unicode="]" horiz-adv-x="994" 
d="M552 -420h-544l43 232h263l267 1466h-263l43 232h544z" />
    <glyph glyph-name="asciicircum" unicode="^" 
d="M887 907l-214 358l-218 -362h-192l358 568h107l356 -564h-197z" />
    <glyph glyph-name="underscore" unicode="_" 
d="M-8 -334v209h1215v-209h-1215z" />
    <glyph glyph-name="grave" unicode="`" 
d="M637 1285l-153 333h280l35 -333h-162z" />
    <glyph glyph-name="a" unicode="a" horiz-adv-x="1214" 
d="M988 384q-7 -37 -7 -82q0 -220 34 -302h-156q-70 0 -104 107q-128 -127 -319 -127q-175 0 -270 98t-95 273q0 298 173 511q186 229 477 229q271 0 391 -50zM699 887q-180 0 -283 -183q-85 -152 -85 -347q0 -173 170 -173q159 0 250 281q40 121 82 402q-71 20 -134 20z
" />
    <glyph glyph-name="b" unicode="b" horiz-adv-x="1215" 
d="M518 -20q-159 0 -234 101l-80 -81h-183q97 247 131 440l190 1070h244l-84 -479q93 60 227 60q202 0 318 -134q109 -127 109 -332q0 -269 -185 -457t-453 -188zM632 880q-101 0 -174 -86l-97 -529q38 -78 151 -78q176 0 281 126q97 117 97 297q0 270 -258 270z" />
    <glyph glyph-name="c" unicode="c" horiz-adv-x="1009" 
d="M927 806q-105 77 -212 77q-180 0 -285 -139q-96 -125 -96 -311q0 -98 56 -167q59 -75 155 -75q134 0 315 114l-30 -261q-153 -64 -315 -64q-201 0 -319 110q-121 112 -121 312q0 293 164 486q174 203 462 203q160 0 277 -66z" />
    <glyph glyph-name="d" unicode="d" horiz-adv-x="1215" 
d="M969 0h-249l19 100q-83 -120 -275 -120q-189 0 -295 112q-105 109 -105 299q0 299 161 493q172 207 465 207q49 0 114 -19q70 -20 104 -48l92 486h242zM707 880q-181 0 -285 -138q-93 -124 -93 -312q0 -244 202 -244q218 0 283 348l48 256q-48 90 -155 90z" />
    <glyph glyph-name="e" unicode="e" horiz-adv-x="1130" 
d="M343 465q-2 -26 -2 -45q0 -232 251 -232q63 0 146 34q80 34 128 78l-29 -263q-127 -57 -310 -57q-207 0 -328 131q-116 128 -116 337q0 283 179.5 463t462.5 180q155 0 256 -59q123 -73 123 -217q0 -195 -182 -300q-149 -87 -360 -87q-112 0 -219 37zM391 654
q65 -19 141 -19q113 0 199 29q125 42 125 132q0 87 -190 87q-84 0 -166 -77q-70 -64 -109 -152z" />
    <glyph glyph-name="f" unicode="f" horiz-adv-x="840" 
d="M929 1271q-81 36 -139 36q-144 0 -198 -236h246l-25 -201h-252l-160 -938q-26 -153 -140.5 -252t-269.5 -100l-53 166q71 16 128 71t70 125l167 928h-151l33 201h148q103 439 469 439q104 0 177 -43z" />
    <glyph glyph-name="g" unicode="g" horiz-adv-x="1096" 
d="M995 885q22 -50 22 -120q0 -322 -290 -455q-155 -71 -170 -96q68 13 106 13q111 0 188 -65q82 -69 82 -178q0 -216 -165 -319q-137 -85 -367 -85q-96 0 -211 37.5t-190 94.5l109 189q143 -102 297 -102q278 0 278 150q0 65 -115 85l-191 34q-107 33 -107 124q0 53 88 107
q-106 30 -174 113q-71 86 -71 194q0 220 146 354q142 131 364 131q138 0 233 -59l94 102l147 -146zM368 628q0 -73 30 -123q37 -59 105 -59q116 0 188 94q66 87 66 206q0 141 -147 141q-112 0 -177 -72.5t-65 -186.5z" />
    <glyph glyph-name="h" unicode="h" horiz-adv-x="1151" 
d="M1080 655l-123 -655h-257l126 665q6 32 6 65q0 150 -150 150q-135 0 -243 -114l-142 -766h-255l272 1510h249l-82 -504q133 85 281 85q155 0 242 -86t87 -240q0 -51 -11 -110z" />
    <glyph glyph-name="i" unicode="i" horiz-adv-x="669" 
d="M323 1415q0 68 47.5 112t115.5 44t115.5 -44.5t47.5 -111.5t-48 -111.5t-115 -44.5q-68 0 -115.5 44.5t-47.5 111.5zM397 0h-254l162 870h-137l42 201h387z" />
    <glyph glyph-name="j" unicode="j" horiz-adv-x="794" 
d="M444 1413q0 68 47.5 113t115.5 45t115.5 -45t47.5 -113q0 -67 -47.5 -112t-115.5 -45t-115.5 45t-47.5 112zM512 15q-46 -250 -230 -352q-149 -83 -427 -83l11 221q257 0 338 88q45 50 60 132l152 849h-144l47 201h389z" />
    <glyph glyph-name="k" unicode="k" horiz-adv-x="1105" 
d="M763 0l-339 441l-42 -35l-71 -406h-251l262 1510h246l-129 -795l189 164q192 167 256 256l175 -151q-44 -54 -442 -405l442 -579h-296z" />
    <glyph glyph-name="l" unicode="l" horiz-adv-x="655" 
d="M477 84q-59 -94 -179 -94q-92 0 -144 61q-50 58 -50 151q0 122 48 351l201 957h248l-206 -997q-44 -213 -44 -304q0 -56 35 -90.5t91 -34.5z" />
    <glyph glyph-name="m" unicode="m" horiz-adv-x="1700" 
d="M1650 702l-131 -702h-256l127 676q6 32 6 68q0 139 -147 139q-51 0 -112 -35t-92 -79l-143 -769h-256l142 755q2 11 2 24q0 104 -159 104q-50 0 -113 -38q-57 -35 -92 -79l-143 -766h-255l145 774q5 27 5 84q0 99 -28 193l245 43q13 -51 22 -97q121 94 302 94
q212 0 300 -115q127 115 320 115q321 0 321 -292q0 -43 -10 -97z" />
    <glyph glyph-name="n" unicode="n" horiz-adv-x="1151" 
d="M947 0h-259l117 624q14 75 14 126q0 133 -157 133q-134 0 -241 -113l-143 -770h-251l151 803q4 21 4 58q0 89 -29 190l245 45l23 -120q132 115 331 115q330 0 330 -309q0 -55 -14 -130z" />
    <glyph glyph-name="o" unicode="o" horiz-adv-x="1167" 
d="M72 401q0 284 168 482q178 208 457 208q204 0 316 -104q115 -107 115 -309q0 -290 -166 -488q-176 -210 -461 -210q-204 0 -316.5 109t-112.5 312zM332 413q0 -229 197 -229q168 0 261 167q77 138 77 320q0 216 -197 216q-164 0 -259 -162q-79 -136 -79 -312z" />
    <glyph glyph-name="p" unicode="p" horiz-adv-x="1226" 
d="M305 29l-80 -449h-250l216 1160q12 64 12 129q0 88 -18 177l244 44q14 -38 23 -102q139 103 276 103q429 0 429 -416q0 -300 -168 -493q-177 -202 -473 -202q-115 0 -211 49zM344 242q49 -51 145 -51q206 0 310 129q96 119 96 330q0 106 -64.5 165.5t-171.5 59.5
q-50 0 -116 -32.5t-99 -71.5z" />
    <glyph glyph-name="q" unicode="q" horiz-adv-x="1226" 
d="M886 -420h-251l86 474q-108 -74 -257 -74q-194 0 -304.5 108t-110.5 301q0 297 175 495q183 207 476 207q61 0 136 -26q82 -28 119 -67q41 64 114 71q29 3 122 3q-55 -137 -92 -339zM756 245l107 576q-60 59 -159 59q-182 0 -290 -135q-101 -125 -101 -311
q0 -115 65 -179t180 -64q118 0 198 54z" />
    <glyph glyph-name="r" unicode="r" horiz-adv-x="915" 
d="M869 817q-89 66 -157 66q-101 0 -184 -91q-75 -82 -95 -187l-113 -605h-251l200 1071h251l-17 -93q133 113 294 113q41 0 147 -19z" />
    <glyph glyph-name="s" unicode="s" horiz-adv-x="940" 
d="M791 778q-120 105 -220 105q-57 0 -100 -24q-53 -29 -53 -81t112 -118q82 -42 163 -83q132 -74 132 -216q0 -187 -147 -290q-129 -91 -324 -91q-176 0 -344 99l132 227q125 -118 245 -118q72 0 120 34q55 38 55 107q0 48 -107 112q-76 40 -153 81q-147 82 -147 228
q0 164 137 259q121 82 293 82q124 0 322 -84z" />
    <glyph glyph-name="t" unicode="t" horiz-adv-x="897" 
d="M841 870h-295l-108 -475q-13 -57 -13 -95q0 -110 124 -110q55 0 180 52v-225q-108 -37 -294 -37q-122 0 -196 75.5t-74 198.5q0 39 9 79l121 537h-124l43 201h124l42 219l286 104l-75 -323h293z" />
    <glyph glyph-name="u" unicode="u" horiz-adv-x="1141" 
d="M928 -1h-250l15 78q-134 -97 -336 -97q-139 0 -217 79.5t-78 218.5q0 44 11 103l129 690h254l-127 -680q-8 -43 -8 -73q0 -130 146 -130q114 0 197 75t103 189l110 619h251z" />
    <glyph glyph-name="v" unicode="v" horiz-adv-x="1131" 
d="M511 -20h-90l-328 1091h261l180 -649l377 649h290z" />
    <glyph glyph-name="w" unicode="w" horiz-adv-x="1584" 
d="M1064 -20h-90l-187 619l-401 -619h-92l-211 1091h254l107 -590l367 590h90l177 -597l309 597h265z" />
    <glyph glyph-name="x" unicode="x" horiz-adv-x="1179" 
d="M755 538l311 -538h-305l-176 333l-285 -333h-308l466 559l-284 512h292l169 -325l258 325h315z" />
    <glyph glyph-name="y" unicode="y" horiz-adv-x="1155" 
d="M620 -107q-149 -311 -578 -313v241q284 0 363 183l52 120q-137 39 -185 288l-127 659h263q117 -704 149 -735l344 735h283z" />
    <glyph glyph-name="z" unicode="z" horiz-adv-x="1091" 
d="M447 217h508l-41 -217h-886v85l626 769h-525l41 217h892v-89z" />
    <glyph glyph-name="braceleft" unicode="{" horiz-adv-x="994" 
d="M1016 1306l-151 3q-129 3 -174.5 -51t-45.5 -163q0 -31 8 -94t8 -94q0 -201 -242 -340q144 -83 144 -216q0 -73 -68 -218t-68 -219q0 -132 222 -132h47l42 1l-36 -203h-169q-150 0 -255 61q-127 73 -127 213q0 87 79.5 256.5t79.5 254.5q0 116 -182 128l26 143
q250 18 250 262q0 38 -9 115t-9 115q0 181 153 284q133 90 323 90h190z" />
    <glyph glyph-name="bar" unicode="|" 
d="M505 -420v1930h206v-1930h-206z" />
    <glyph glyph-name="braceright" unicode="}" horiz-adv-x="994" 
d="M872 492q-250 -16 -250 -268q0 -39 7 -116.5t7 -116.5q0 -202 -148 -312q-133 -99 -342 -99h-181l36 203q129 0 189 12q113 23 156 94q37 63 37 166q0 32 -6 97t-6 97q0 213 240 324q-142 107 -142 230q0 71 65 205.5t65 205.5q0 92 -102 92h-217l36 196h177
q145 0 249 -60q126 -72 126 -207q0 -79 -75 -230t-75 -229q0 -127 180 -141z" />
    <glyph glyph-name="asciitilde" unicode="~" 
d="M326 479h-146q19 106 66 176q61 91 154 91q73 0 293 -66q37 -11 73 -11q60 0 87 77h148q-31 -122 -71 -180q-59 -87 -160 -87q-78 0 -240 49q-96 28 -115 28q-52 0 -89 -77z" />
    <glyph glyph-name="nonbreakingspace" unicode="&#xa0;" horiz-adv-x="617" 
 />
    <glyph glyph-name="exclamdown" unicode="&#xa1;" horiz-adv-x="752" 
d="M452 769q-69 0 -118 46.5t-49 114.5q0 69 49 115t118 46t118 -46t49 -115q0 -68 -49 -114.5t-118 -46.5zM472 647l-10 -279q-8 -216 -36 -368l-78 -420h-297l57 330q13 78 103 348l129 389h132z" />
    <glyph glyph-name="cent" unicode="&#xa2;" 
d="M1014 974l-48 -205q-80 60 -153 69l-183 -605q117 4 278 105l-28 -244q-140 -58 -309 -58l-56 -188h-159l67 215q-231 83 -231 354q0 252 139 423q148 182 394 195l57 182h145l-58 -191q78 -14 145 -52zM659 821q-111 -39 -171 -151q-54 -99 -54 -226q0 -95 59 -157z" />
    <glyph glyph-name="sterling" unicode="&#xa3;" 
d="M1025 1189q-93 62 -179 62q-242 0 -242 -381h219l-39 -209h-179q-2 -109 -34 -242q-37 -153 -91 -223q91 -41 224 -41q154 0 254 151l163 -171q-54 -102 -181 -163q-115 -56 -240 -56q-73 0 -218 28t-218 28q-77 0 -212 -18l-62 200q38 13 84 32q73 30 79 33q37 20 65 54
q40 50 74 146q43 125 43 242h-184l36 209h147q4 609 565 609q152 0 262 -85z" />
    <glyph glyph-name="currency" unicode="&#xa4;" 
d="M987 203l-147 148q-118 -75 -249 -75t-250 75l-147 -148l-126 132l147 144q-73 122 -73 247q0 124 73 246l-147 144l126 132l148 -148q118 75 249 75t249 -74l147 147l127 -132l-147 -144q74 -122 74 -246q0 -125 -74 -247l147 -144zM321 726q0 -114 77.5 -192t191.5 -78
q112 0 190.5 79t78.5 191q0 113 -78 191t-191 78t-191 -78t-78 -191z" />
    <glyph glyph-name="yen" unicode="&#xa5;" 
d="M744 648l-15 -80h255l-37 -182h-251l-71 -386h-258l71 386h-259l37 182h256l16 88l-345 809h271l236 -573l439 573h298z" />
    <glyph glyph-name="brokenbar" unicode="&#xa6;" 
d="M504 673v837h206v-837h-206zM504 -420v837h206v-837h-206z" />
    <glyph glyph-name="section" unicode="&#xa7;" 
d="M942 1162q-105 100 -220 100q-175 0 -175 -109q0 -52 73 -83q162 -50 179 -57q107 -42 153 -103q38 -53 38 -122q0 -130 -104 -233q77 -71 77 -168q0 -193 -157 -307q-140 -103 -340 -103q-227 0 -364 105l122 222q102 -101 272 -101q193 0 193 132q0 89 -182 131
q-108 25 -183 79q-98 69 -98 163q0 130 112 220q-64 62 -64 163q0 196 149 304q132 95 336 95q178 0 302 -113zM528 856q-51 -33 -51 -80q0 -64 92 -101q36 -14 144 -37q19 46 19 87q0 54 -45 84q-22 14 -39 18z" />
    <glyph glyph-name="dieresis" unicode="&#xa8;" 
d="M815 1401q0 53 49 84q42 28 98 28q55 0 98 -28q50 -32 50 -84q0 -54 -49 -85q-43 -28 -99 -28t-98 28q-49 32 -49 85zM342 1401q0 52 50 84q43 28 98 28q56 0 98 -28q49 -31 49 -84q0 -52 -49 -85q-43 -28 -98 -28q-56 0 -99 28q-49 31 -49 85z" />
    <glyph glyph-name="copyright" unicode="&#xa9;" horiz-adv-x="1460" 
d="M75 661q0 294 205.5 499t499.5 205t499 -205t205 -499t-205 -499.5t-499 -205.5t-499.5 205.5t-205.5 499.5zM245 661q0 -223 156 -379t379 -156t378.5 156t155.5 379t-155.5 378.5t-378.5 155.5t-379 -155.5t-156 -378.5zM1012 1025l-56 -142q-69 51 -167 51t-149 -94
q-42 -76 -42 -182q0 -102 44 -174q53 -86 149 -86q91 0 162 92l92 -126q-115 -113 -265 -113q-168 0 -261 126q-82 112 -82 286q0 169 89 287q97 130 261 130q131 0 225 -55z" />
    <glyph glyph-name="ordfeminine" unicode="&#xaa;" horiz-adv-x="876" 
d="M808 728h-75q-85 0 -118 71q-73 -85 -190 -85t-181 73q-61 69 -61 188q0 198 105 348q118 168 308 168q170 0 239 -36l-75 -458q-5 -31 -5 -57q0 -77 53 -212zM583 1343q-117 0 -184 -130q-54 -105 -54 -234q0 -117 119 -117q72 0 120 109q28 63 34 101l42 258
q-38 13 -77 13z" />
    <glyph glyph-name="guillemotleft" unicode="&#xab;" horiz-adv-x="1074" 
d="M99 519v96l415 285v-197l-189 -140l189 -124v-197zM551 519v96l415 285v-197l-189 -140l189 -124v-197z" />
    <glyph glyph-name="logicalnot" unicode="&#xac;" 
d="M1062 966v-556h-201v355h-697v201h898z" />
    <glyph glyph-name="sfthyphen" unicode="&#xad;" horiz-adv-x="752" 
d="M88 476l42 235h529l-42 -235h-529z" />
    <glyph glyph-name="registered" unicode="&#xae;" horiz-adv-x="1460" 
d="M75 661q0 294 205.5 499t499.5 205t499 -205t205 -499t-205 -499.5t-499 -205.5t-499.5 205.5t-205.5 499.5zM245 661q0 -223 156 -379t379 -156t378.5 156t155.5 379t-155.5 378.5t-378.5 155.5t-379 -155.5t-156 -378.5zM940 267l-190 323h-66v-323h-162v805h220
q297 0 297 -235q0 -145 -133 -216l214 -354h-180zM742 926h-58v-197q154 0 177 33q16 22 16 68q0 96 -135 96z" />
    <glyph glyph-name="overscore" unicode="&#xaf;" 
d="M-8 1466v209h1215v-209h-1215z" />
    <glyph glyph-name="degree" unicode="&#xb0;" 
d="M317 1282q0 95 78 154q71 55 169 55q97 0 168 -55q78 -60 78 -154t-78 -154q-71 -56 -168 -56q-98 0 -169 55q-78 60 -78 155zM460 1282q0 -40 33 -65q30 -24 71 -24q40 0 72 25t32 64t-32 64t-72 25q-41 0 -71 -24q-33 -25 -33 -65z" />
    <glyph glyph-name="plusminus" unicode="&#xb1;" 
d="M713 535v-334h349v-201h-898v201h348v334h-348v201h348v343h201v-343h349v-201h-349z" />
    <glyph glyph-name="twosuperior" unicode="&#xb2;" horiz-adv-x="952" 
d="M567 731h270l-27 -165h-526v63l303 384q119 151 119 219q0 99 -125 99q-57 0 -113 -89l-118 84q29 74 102 120q70 45 151 45q120 0 195 -66q78 -69 78 -187q0 -101 -120 -272q-49 -69 -189 -235z" />
    <glyph glyph-name="threesuperior" unicode="&#xb3;" horiz-adv-x="949" 
d="M737 1040q79 -57 79 -164q0 -324 -351 -324q-138 0 -220 101l80 157q67 -99 157 -99q166 0 166 151q0 105 -184 105l26 144q76 0 129 31q65 38 65 109q0 81 -106 81q-59 0 -119 -55l-81 115q86 99 224 99q98 0 174 -61q81 -66 81 -162q0 -148 -120 -228z" />
    <glyph glyph-name="acute" unicode="&#xb4;" 
d="M710 1285h-216l205 333h284z" />
    <glyph glyph-name="mu1" unicode="&#xb5;" horiz-adv-x="1141" 
d="M926 0h-250l17 80q-134 -97 -336 -97q-52 0 -103 13l-76 -416h-251l275 1491h254l-127 -679q-8 -43 -8 -72q0 -130 146 -130q114 0 198 76q82 73 102 187l110 618h251z" />
    <glyph glyph-name="paragraph" unicode="&#xb6;" 
d="M857 -250h-205l285 1553h-137l-285 -1553h-225l158 860q-279 21 -279 313q0 218 103 379q119 187 325 187h579z" />
    <glyph glyph-name="middot" unicode="&#xb7;" horiz-adv-x="752" 
d="M220 689q0 66 46.5 112.5t112.5 46.5t112.5 -46.5t46.5 -112.5t-46.5 -112.5t-112.5 -46.5t-112.5 46.5t-46.5 112.5z" />
    <glyph glyph-name="cedilla" unicode="&#xb8;" 
d="M338 -450v123q18 -5 39 -5q58 0 108 25q63 31 63 83q0 35 -29 64.5t-64 30.5l62 86q230 -15 230 -186q0 -115 -109 -176q-89 -50 -213 -50q-15 0 -87 5z" />
    <glyph glyph-name="onesuperior" unicode="&#xb9;" horiz-adv-x="980" 
d="M687 565h-166l100 613l-155 -86l24 186q192 97 263 200h81z" />
    <glyph glyph-name="ordmasculine" unicode="&#xba;" horiz-adv-x="888" 
d="M231 1009q0 186 104 327q115 155 294 155q130 0 198 -81q64 -75 64 -208q0 -191 -97 -331q-109 -157 -292 -157q-132 0 -203 83q-68 78 -68 212zM393 1017q0 -155 125 -155q104 0 163 121q47 97 47 213q0 147 -115 147q-102 0 -166 -117q-54 -98 -54 -209z" />
    <glyph glyph-name="guillemotright" unicode="&#xbb;" horiz-adv-x="1074" 
d="M189 242v197l189 124l-189 140v197l415 -285v-96zM591 242v197l189 124l-189 140v197l415 -285v-96z" />
    <glyph glyph-name="onequarter" unicode="&#xbc;" horiz-adv-x="1796" 
d="M451 565h-166l100 613l-155 -86l24 186q192 97 263 200h81zM531 -35h-188l884 1526h186zM1624 231h-97l-37 -231h-166l37 231h-385l18 110l560 572h83l-87 -532h97zM1201 381h185l37 214z" />
    <glyph glyph-name="onehalf" unicode="&#xbd;" horiz-adv-x="1796" 
d="M434 565h-166l100 613l-155 -86l24 186q192 97 263 200h81zM504 -35h-188l884 1526h186zM1324 165h270l-27 -165h-526v63l303 384q119 151 119 219q0 99 -125 99q-57 0 -113 -89l-118 84q29 74 102 120q70 45 151 45q120 0 195 -66q78 -69 78 -187q0 -101 -120 -272
q-49 -69 -189 -235z" />
    <glyph glyph-name="threequarters" unicode="&#xbe;" horiz-adv-x="1796" 
d="M624 1040q79 -57 79 -164q0 -324 -351 -324q-138 0 -220 101l80 157q67 -99 157 -99q166 0 166 151q0 105 -184 105l26 144q76 0 129 31q65 38 65 109q0 81 -106 81q-59 0 -119 -55l-81 115q86 99 224 99q98 0 174 -61q81 -66 81 -162q0 -148 -120 -228zM594 -35h-188
l884 1526h186zM1625 231h-97l-37 -231h-166l37 231h-385l18 110l560 572h83l-87 -532h97zM1202 381h185l37 214z" />
    <glyph glyph-name="questiondown" unicode="&#xbf;" horiz-adv-x="752" 
d="M502 769q-69 0 -118 46.5t-49 114.5q0 69 49 115t118 46t118 -46.5t49 -114.5t-49 -114.5t-118 -46.5zM597 -321q-113 -99 -346 -99q-144 0 -232 76q-93 80 -93 222q0 170 128 307l228 196q140 120 140 241v34h146q1 -17 9 -60q7 -38 7 -60q0 -151 -108 -253l-165 -156
q-105 -99 -131 -173q-13 -34 -13 -68q0 -109 141 -109q111 0 204 71z" />
    <glyph glyph-name="Agrave" unicode="&#xc0;" horiz-adv-x="1257" 
d="M918 0l-46 298h-524l-172 -298h-271l890 1485h93l301 -1485h-271zM760 1040l-301 -547h384zM736 1585l-153 333h280l35 -333h-162z" />
    <glyph glyph-name="Aacute" unicode="&#xc1;" horiz-adv-x="1257" 
d="M918 0l-46 298h-524l-172 -298h-271l890 1485h93l301 -1485h-271zM760 1040l-301 -547h384zM859 1585h-216l205 333h284z" />
    <glyph glyph-name="Acircumflex" unicode="&#xc2;" horiz-adv-x="1257" 
d="M918 0l-46 298h-524l-172 -298h-271l890 1485h93l301 -1485h-271zM760 1040l-301 -547h384zM942 1568l-118 143l-191 -146h-271l432 358h139l290 -355h-281z" />
    <glyph glyph-name="Atilde" unicode="&#xc3;" horiz-adv-x="1257" 
d="M918 0l-46 298h-524l-172 -298h-271l890 1485h93l301 -1485h-271zM760 1040l-301 -547h384zM588 1655h-160q22 99 81 170q70 83 162 83q48 0 148 -43t127 -43q34 0 62.5 26t33.5 60h162q-19 -87 -85 -165q-74 -88 -155 -88q-40 0 -145 46.5t-148 46.5q-56 0 -83 -93z" />
    <glyph glyph-name="Adieresis" unicode="&#xc4;" horiz-adv-x="1257" 
d="M918 0l-46 298h-524l-172 -298h-271l890 1485h93l301 -1485h-271zM760 1040l-301 -547h384zM944 1771q0 53 49 84q42 28 98 28q55 0 98 -28q50 -32 50 -84q0 -54 -49 -85q-43 -28 -99 -28t-98 28q-49 32 -49 85zM471 1771q0 52 50 84q43 28 98 28q56 0 98 -28
q49 -31 49 -84q0 -52 -49 -85q-43 -28 -98 -28q-56 0 -99 28q-49 31 -49 85z" />
    <glyph glyph-name="Aring" unicode="&#xc5;" horiz-adv-x="1257" 
d="M918 0l-46 298h-524l-172 -298h-271l890 1485h93l301 -1485h-271zM760 1040l-301 -547h384zM846 1504q-96 0 -169 56q-78 61 -78 154t79 154q72 55 168 55q97 0 168 -55q78 -60 78 -154t-78 -154q-71 -56 -168 -56zM849 1802q-47 0 -84 -22q-43 -26 -43 -70q0 -43 44 -69
q37 -22 83 -22t83 22q44 26 44 69q0 44 -43 70q-37 22 -84 22z" />
    <glyph glyph-name="AE" unicode="&#xc6;" horiz-adv-x="1965" 
d="M1962 1237h-675l-61 -337h484l-41 -218h-484l-82 -454h664l-43 -228h-932l55 298h-391l-183 -298h-307l969 1465h1070zM554 493h329l140 750z" />
    <glyph glyph-name="Ccedilla" unicode="&#xc7;" horiz-adv-x="1255" 
d="M1165 1183q-114 81 -253 81q-237 0 -393 -234q-137 -207 -137 -456q0 -161 75 -260q83 -111 239 -111q230 0 361 125l-5 -229q-142 -124 -409 -124q-244 0 -389 161q-141 156 -141 402q0 389 207 658q226 294 604 294q177 0 314 -58zM338 -450v123q18 -5 39 -5
q58 0 108 25q63 31 63 83q0 35 -29 64.5t-64 30.5l62 86q230 -15 230 -186q0 -115 -109 -176q-89 -50 -213 -50q-15 0 -87 5z" />
    <glyph glyph-name="Egrave" unicode="&#xc8;" horiz-adv-x="1215" 
d="M1212 1237h-675l-61 -337h484l-41 -218h-484l-82 -454h664l-43 -228h-932l270 1465h943zM700 1585l-153 333h280l35 -333h-162z" />
    <glyph glyph-name="Eacute" unicode="&#xc9;" horiz-adv-x="1215" 
d="M1212 1237h-675l-61 -337h484l-41 -218h-484l-82 -454h664l-43 -228h-932l270 1465h943zM843 1585h-216l205 333h284z" />
    <glyph glyph-name="Ecircumflex" unicode="&#xca;" horiz-adv-x="1215" 
d="M1212 1237h-675l-61 -337h484l-41 -218h-484l-82 -454h664l-43 -228h-932l270 1465h943zM956 1568l-118 143l-191 -146h-271l432 358h139l290 -355h-281z" />
    <glyph glyph-name="Edieresis" unicode="&#xcb;" horiz-adv-x="1215" 
d="M1212 1237h-675l-61 -337h484l-41 -218h-484l-82 -454h664l-43 -228h-932l270 1465h943zM888 1771q0 53 49 84q42 28 98 28q55 0 98 -28q50 -32 50 -84q0 -54 -49 -85q-43 -28 -99 -28t-98 28q-49 32 -49 85zM415 1771q0 52 50 84q43 28 98 28q56 0 98 -28q49 -31 49 -84
q0 -52 -49 -85q-43 -28 -98 -28q-56 0 -99 28q-49 31 -49 85z" />
    <glyph glyph-name="Igrave" unicode="&#xcc;" horiz-adv-x="570" 
d="M329 0h-261l269 1465h262zM399 1585l-153 333h280l35 -333h-162z" />
    <glyph glyph-name="Iacute" unicode="&#xcd;" horiz-adv-x="570" 
d="M329 0h-261l269 1465h262zM520 1585h-216l205 333h284z" />
    <glyph glyph-name="Icircumflex" unicode="&#xce;" horiz-adv-x="570" 
d="M329 0h-261l269 1465h262zM623 1568l-118 143l-191 -146h-271l432 358h139l290 -355h-281z" />
    <glyph glyph-name="Idieresis" unicode="&#xcf;" horiz-adv-x="570" 
d="M329 0h-261l269 1465h262zM595 1771q0 53 49 84q42 28 98 28q55 0 98 -28q50 -32 50 -84q0 -54 -49 -85q-43 -28 -99 -28t-98 28q-49 32 -49 85zM122 1771q0 52 50 84q43 28 98 28q56 0 98 -28q49 -31 49 -84q0 -52 -49 -85q-43 -28 -98 -28q-56 0 -99 28q-49 31 -49 85z
" />
    <glyph glyph-name="Eth" unicode="&#xd0;" horiz-adv-x="1385" 
d="M1192 133q-226 -158 -553 -158q-251 0 -409 160t-158 411q0 427 230 681q239 263 662 263q224 0 333 -100l-78 -217q-147 89 -293 89q-274 0 -436 -207q-148 -189 -148 -471q0 -177 97 -279t273 -102q143 0 250 79l53 290h-203l40 218h461zM569 1910h214q-16 -55 -16 -73
q0 -68 130 -68q162 0 192 141h214q-70 -325 -434 -325q-313 0 -313 236q0 32 13 89z" />
    <glyph glyph-name="Ntilde" unicode="&#xd1;" horiz-adv-x="1352" 
d="M1113 -20h-101l-540 947l-162 -927h-258l269 1465h120l529 -908l159 908h257zM641 1655h-160q22 99 81 170q70 83 162 83q48 0 148 -43t127 -43q34 0 62.5 26t33.5 60h162q-19 -87 -85 -165q-74 -88 -155 -88q-40 0 -145 46.5t-148 46.5q-56 0 -83 -93z" />
    <glyph glyph-name="Ograve" unicode="&#xd2;" horiz-adv-x="1438" 
d="M99 545q0 374 193 644q217 302 576 302q264 0 405.5 -139.5t141.5 -403.5q0 -413 -197 -677q-220 -296 -618 -296q-242 0 -377 168q-124 154 -124 402zM369 572q0 -153 54 -249q68 -120 209 -120q255 0 397 246q117 204 117 479q0 336 -296 336q-221 0 -362 -245
q-119 -209 -119 -447zM810 1585l-153 333h280l35 -333h-162z" />
    <glyph glyph-name="Oacute" unicode="&#xd3;" horiz-adv-x="1438" 
d="M99 545q0 374 193 644q217 302 576 302q264 0 405.5 -139.5t141.5 -403.5q0 -413 -197 -677q-220 -296 -618 -296q-242 0 -377 168q-124 154 -124 402zM369 572q0 -153 54 -249q68 -120 209 -120q255 0 397 246q117 204 117 479q0 336 -296 336q-221 0 -362 -245
q-119 -209 -119 -447zM935 1585h-216l205 333h284z" />
    <glyph glyph-name="Ocircumflex" unicode="&#xd4;" horiz-adv-x="1438" 
d="M99 545q0 374 193 644q217 302 576 302q264 0 405.5 -139.5t141.5 -403.5q0 -413 -197 -677q-220 -296 -618 -296q-242 0 -377 168q-124 154 -124 402zM369 572q0 -153 54 -249q68 -120 209 -120q255 0 397 246q117 204 117 479q0 336 -296 336q-221 0 -362 -245
q-119 -209 -119 -447zM1026 1568l-118 143l-191 -146h-271l432 358h139l290 -355h-281z" />
    <glyph glyph-name="Otilde" unicode="&#xd5;" horiz-adv-x="1438" 
d="M99 545q0 374 193 644q217 302 576 302q264 0 405.5 -139.5t141.5 -403.5q0 -413 -197 -677q-220 -296 -618 -296q-242 0 -377 168q-124 154 -124 402zM369 572q0 -153 54 -249q68 -120 209 -120q255 0 397 246q117 204 117 479q0 336 -296 336q-221 0 -362 -245
q-119 -209 -119 -447zM612 1655h-160q22 99 81 170q70 83 162 83q48 0 148 -43t127 -43q34 0 62.5 26t33.5 60h162q-19 -87 -85 -165q-74 -88 -155 -88q-40 0 -145 46.5t-148 46.5q-56 0 -83 -93z" />
    <glyph glyph-name="Odieresis" unicode="&#xd6;" horiz-adv-x="1438" 
d="M99 545q0 374 193 644q217 302 576 302q264 0 405.5 -139.5t141.5 -403.5q0 -413 -197 -677q-220 -296 -618 -296q-242 0 -377 168q-124 154 -124 402zM369 572q0 -153 54 -249q68 -120 209 -120q255 0 397 246q117 204 117 479q0 336 -296 336q-221 0 -362 -245
q-119 -209 -119 -447zM988 1771q0 53 49 84q42 28 98 28q55 0 98 -28q50 -32 50 -84q0 -54 -49 -85q-43 -28 -99 -28t-98 28q-49 32 -49 85zM515 1771q0 52 50 84q43 28 98 28q56 0 98 -28q49 -31 49 -84q0 -52 -49 -85q-43 -28 -98 -28q-56 0 -99 28q-49 31 -49 85z" />
    <glyph glyph-name="multiply" unicode="&#xd7;" 
d="M759 629l314 -315l-143 -142l-314 315l-317 -317l-142 141l317 317l-321 321l142 142l321 -321l317 317l143 -141z" />
    <glyph glyph-name="Oslash" unicode="&#xd8;" horiz-adv-x="1438" 
d="M1468 1491l-149 -194q96 -134 96 -349q0 -413 -197 -677q-220 -296 -618 -296q-142 0 -250 61l-54 -71h-248l156 205q-105 150 -105 375q0 374 193 644q217 302 576 302q174 0 296 -62l48 62h256zM1011 1228q-65 36 -161 36q-221 0 -362 -245q-119 -209 -119 -447
q0 -88 19 -160zM504 236q54 -33 128 -33q255 0 397 246q117 204 117 479q0 71 -13 127z" />
    <glyph glyph-name="Ugrave" unicode="&#xd9;" horiz-adv-x="1355" 
d="M1217 451q-43 -232 -218 -358q-165 -118 -408 -118q-195 0 -322 88q-146 100 -146 286q0 53 11 113l184 1003h268l-187 -998q-5 -27 -5 -57q0 -101 64 -156q60 -51 163 -51q135 0 223 73t113 205l183 984h264zM801 1585l-153 333h280l35 -333h-162z" />
    <glyph glyph-name="Uacute" unicode="&#xda;" horiz-adv-x="1355" 
d="M1217 451q-43 -232 -218 -358q-165 -118 -408 -118q-195 0 -322 88q-146 100 -146 286q0 53 11 113l184 1003h268l-187 -998q-5 -27 -5 -57q0 -101 64 -156q60 -51 163 -51q135 0 223 73t113 205l183 984h264zM954 1585h-216l205 333h284z" />
    <glyph glyph-name="Ucircumflex" unicode="&#xdb;" horiz-adv-x="1355" 
d="M1217 451q-43 -232 -218 -358q-165 -118 -408 -118q-195 0 -322 88q-146 100 -146 286q0 53 11 113l184 1003h268l-187 -998q-5 -27 -5 -57q0 -101 64 -156q60 -51 163 -51q135 0 223 73t113 205l183 984h264zM1037 1568l-118 143l-191 -146h-271l432 358h139l290 -355
h-281z" />
    <glyph glyph-name="Udieresis" unicode="&#xdc;" horiz-adv-x="1355" 
d="M1217 451q-43 -232 -218 -358q-165 -118 -408 -118q-195 0 -322 88q-146 100 -146 286q0 53 11 113l184 1003h268l-187 -998q-5 -27 -5 -57q0 -101 64 -156q60 -51 163 -51q135 0 223 73t113 205l183 984h264zM989 1771q0 53 49 84q42 28 98 28q55 0 98 -28
q50 -32 50 -84q0 -54 -49 -85q-43 -28 -99 -28t-98 28q-49 32 -49 85zM516 1771q0 52 50 84q43 28 98 28q56 0 98 -28q49 -31 49 -84q0 -52 -49 -85q-43 -28 -98 -28q-56 0 -99 28q-49 31 -49 85z" />
    <glyph glyph-name="Yacute" unicode="&#xdd;" horiz-adv-x="570" 
d="M329 0h-261l269 1465h262zM348 1773q0 55 50 88q45 29 102 29t102 -30q51 -33 51 -87q0 -55 -51 -88q-45 -30 -102 -30q-58 0 -102 30q-50 33 -50 88z" />
    <glyph glyph-name="Thorn" unicode="&#xde;" horiz-adv-x="1027" 
d="M940 1176q-116 85 -236 85q-241 0 -241 -182q0 -75 128 -184l151 -128q61 -52 84 -75q41 -41 70 -89q60 -98 60 -201q0 -214 -170 -328q-146 -99 -371 -99q-197 0 -372 85l84 257q134 -101 311 -101q98 0 165 38q83 46 83 137q0 81 -128 183l-157 125q-60 48 -84 71
q-38 38 -67 86q-56 93 -56 196q0 208 141 327q132 111 344 111q70 0 174 -15q119 -16 167 -39zM188 -450v123q18 -5 39 -5q58 0 108 25q63 31 63 83q0 35 -29 64.5t-64 30.5l62 86q230 -15 230 -186q0 -115 -109 -176q-89 -50 -213 -50q-15 0 -87 5z" />
    <glyph glyph-name="germandbls" unicode="&#xdf;" horiz-adv-x="1182" 
d="M441 3l84 209q51 -12 73 -12q124 0 191 93q60 83 60 212q0 93 -66 156q-29 25 -115 104q-63 59 -63 130q0 50 53 96l86 74q65 56 65 142q0 78 -115 78q-95 0 -147 -103q-30 -60 -53 -185l-190 -1048q-31 -170 -148 -269t-289 -100l-19 171q167 34 210 271l192 1070
q32 180 147 295q124 123 301 123q147 0 240 -51q117 -64 117 -199q0 -94 -59 -186q-34 -53 -127 -152q247 -143 247 -371q0 -237 -129 -397q-139 -174 -370 -174q-112 0 -176 23z" />
    <glyph glyph-name="agrave" unicode="&#xe0;" horiz-adv-x="1214" 
d="M988 384q-7 -37 -7 -82q0 -220 34 -302h-156q-70 0 -104 107q-128 -127 -319 -127q-175 0 -270 98t-95 273q0 298 173 511q186 229 477 229q271 0 391 -50zM699 887q-180 0 -283 -183q-85 -152 -85 -347q0 -173 170 -173q159 0 250 281q40 121 82 402q-71 20 -134 20z
M662 1285l-153 333h280l35 -333h-162z" />
    <glyph glyph-name="aacute" unicode="&#xe1;" horiz-adv-x="1214" 
d="M988 384q-7 -37 -7 -82q0 -220 34 -302h-156q-70 0 -104 107q-128 -127 -319 -127q-175 0 -270 98t-95 273q0 298 173 511q186 229 477 229q271 0 391 -50zM699 887q-180 0 -283 -183q-85 -152 -85 -347q0 -173 170 -173q159 0 250 281q40 121 82 402q-71 20 -134 20z
M775 1285h-216l205 333h284z" />
    <glyph glyph-name="acircumflex" unicode="&#xe2;" horiz-adv-x="1214" 
d="M988 384q-7 -37 -7 -82q0 -220 34 -302h-156q-70 0 -104 107q-128 -127 -319 -127q-175 0 -270 98t-95 273q0 298 173 511q186 229 477 229q271 0 391 -50zM699 887q-180 0 -283 -183q-85 -152 -85 -347q0 -173 170 -173q159 0 250 281q40 121 82 402q-71 20 -134 20z
M878 1285l-118 143l-191 -146h-271l432 358h139l290 -355h-281z" />
    <glyph glyph-name="atilde" unicode="&#xe3;" horiz-adv-x="1214" 
d="M988 384q-7 -37 -7 -82q0 -220 34 -302h-156q-70 0 -104 107q-128 -127 -319 -127q-175 0 -270 98t-95 273q0 298 173 511q186 229 477 229q271 0 391 -50zM699 887q-180 0 -283 -183q-85 -152 -85 -347q0 -173 170 -173q159 0 250 281q40 121 82 402q-71 20 -134 20z
M484 1285h-160q22 99 81 170q70 83 162 83q48 0 148 -43t127 -43q34 0 62.5 26t33.5 60h162q-19 -87 -85 -165q-74 -88 -155 -88q-40 0 -145 46.5t-148 46.5q-56 0 -83 -93z" />
    <glyph glyph-name="adieresis" unicode="&#xe4;" horiz-adv-x="1214" 
d="M988 384q-7 -37 -7 -82q0 -220 34 -302h-156q-70 0 -104 107q-128 -127 -319 -127q-175 0 -270 98t-95 273q0 298 173 511q186 229 477 229q271 0 391 -50zM699 887q-180 0 -283 -183q-85 -152 -85 -347q0 -173 170 -173q159 0 250 281q40 121 82 402q-71 20 -134 20z
M830 1401q0 53 49 84q42 28 98 28q55 0 98 -28q50 -32 50 -84q0 -54 -49 -85q-43 -28 -99 -28t-98 28q-49 32 -49 85zM357 1401q0 52 50 84q43 28 98 28q56 0 98 -28q49 -31 49 -84q0 -52 -49 -85q-43 -28 -98 -28q-56 0 -99 28q-49 31 -49 85z" />
    <glyph glyph-name="aring" unicode="&#xe5;" horiz-adv-x="1214" 
d="M988 384q-7 -37 -7 -82q0 -220 34 -302h-156q-70 0 -104 107q-128 -127 -319 -127q-175 0 -270 98t-95 273q0 298 173 511q186 229 477 229q271 0 391 -50zM699 887q-180 0 -283 -183q-85 -152 -85 -347q0 -173 170 -173q159 0 250 281q40 121 82 402q-71 20 -134 20z
M771 1285q-96 0 -169 56q-78 61 -78 154t79 154q72 55 168 55q97 0 168 -55q78 -60 78 -154t-78 -154q-71 -56 -168 -56zM774 1583q-47 0 -84 -22q-43 -26 -43 -70q0 -43 44 -69q37 -22 83 -22t83 22q44 26 44 69q0 44 -43 70q-37 22 -84 22z" />
    <glyph glyph-name="ae" unicode="&#xe6;" horiz-adv-x="1830" 
d="M1020 1030l-23 -109q163 170 428 170q156 0 258 -60q126 -74 126 -219q0 -195 -185 -301q-152 -87 -362 -87q-113 0 -214 35q-2 -19 -2 -38q0 -123 63 -176q58 -49 183 -49q64 0 149.5 36.5t131.5 82.5l-31 -277q-128 -58 -315 -58q-129 0 -201 23q-102 32 -158 120
q0 -27 21 -123h-93q-68 0 -113 65q-67 -85 -267 -85q-164 0 -259 106q-91 102 -91 267q0 291 180 508q190 230 475 230q157 0 299 -61zM1551 784q0 91 -145 91q-97 0 -184 -65q-81 -61 -124 -154q59 -17 134 -17q319 0 319 145zM827 837q-34 42 -98 42q-180 0 -292 -162
q-100 -145 -100 -332q0 -193 164 -193q96 0 171 97q60 77 79 173z" />
    <glyph glyph-name="ccedilla" unicode="&#xe7;" horiz-adv-x="1009" 
d="M927 806q-105 77 -212 77q-180 0 -285 -139q-96 -125 -96 -311q0 -98 56 -167q59 -75 155 -75q134 0 315 114l-30 -261q-153 -64 -315 -64q-201 0 -319 110q-121 112 -121 312q0 293 164 486q174 203 462 203q160 0 277 -66zM243 -450v123q18 -5 39 -5q58 0 108 25
q63 31 63 83q0 35 -29 64.5t-64 30.5l62 86q230 -15 230 -186q0 -115 -109 -176q-89 -50 -213 -50q-15 0 -87 5z" />
    <glyph glyph-name="egrave" unicode="&#xe8;" horiz-adv-x="1130" 
d="M343 465q-2 -26 -2 -45q0 -232 251 -232q63 0 146 34q80 34 128 78l-29 -263q-127 -57 -310 -57q-207 0 -328 131q-116 128 -116 337q0 283 179.5 463t462.5 180q155 0 256 -59q123 -73 123 -217q0 -195 -182 -300q-149 -87 -360 -87q-112 0 -219 37zM391 654
q65 -19 141 -19q113 0 199 29q125 42 125 132q0 87 -190 87q-84 0 -166 -77q-70 -64 -109 -152zM677 1285l-153 333h280l35 -333h-162z" />
    <glyph glyph-name="eacute" unicode="&#xe9;" horiz-adv-x="1130" 
d="M343 465q-2 -26 -2 -45q0 -232 251 -232q63 0 146 34q80 34 128 78l-29 -263q-127 -57 -310 -57q-207 0 -328 131q-116 128 -116 337q0 283 179.5 463t462.5 180q155 0 256 -59q123 -73 123 -217q0 -195 -182 -300q-149 -87 -360 -87q-112 0 -219 37zM391 654
q65 -19 141 -19q113 0 199 29q125 42 125 132q0 87 -190 87q-84 0 -166 -77q-70 -64 -109 -152zM755 1285h-216l205 333h284z" />
    <glyph glyph-name="ecircumflex" unicode="&#xea;" horiz-adv-x="1130" 
d="M343 465q-2 -26 -2 -45q0 -232 251 -232q63 0 146 34q80 34 128 78l-29 -263q-127 -57 -310 -57q-207 0 -328 131q-116 128 -116 337q0 283 179.5 463t462.5 180q155 0 256 -59q123 -73 123 -217q0 -195 -182 -300q-149 -87 -360 -87q-112 0 -219 37zM391 654
q65 -19 141 -19q113 0 199 29q125 42 125 132q0 87 -190 87q-84 0 -166 -77q-70 -64 -109 -152zM893 1285l-118 143l-191 -146h-271l432 358h139l290 -355h-281z" />
    <glyph glyph-name="edieresis" unicode="&#xeb;" horiz-adv-x="1130" 
d="M343 465q-2 -26 -2 -45q0 -232 251 -232q63 0 146 34q80 34 128 78l-29 -263q-127 -57 -310 -57q-207 0 -328 131q-116 128 -116 337q0 283 179.5 463t462.5 180q155 0 256 -59q123 -73 123 -217q0 -195 -182 -300q-149 -87 -360 -87q-112 0 -219 37zM391 654
q65 -19 141 -19q113 0 199 29q125 42 125 132q0 87 -190 87q-84 0 -166 -77q-70 -64 -109 -152zM790 1401q0 53 49 84q42 28 98 28q55 0 98 -28q50 -32 50 -84q0 -54 -49 -85q-43 -28 -99 -28t-98 28q-49 32 -49 85zM317 1401q0 52 50 84q43 28 98 28q56 0 98 -28
q49 -31 49 -84q0 -52 -49 -85q-43 -28 -98 -28q-56 0 -99 28q-49 31 -49 85z" />
    <glyph glyph-name="igrave" unicode="&#xec;" horiz-adv-x="669" 
d="M397 0h-254l162 870h-137l42 201h387zM358 1285l-153 333h280l35 -333h-162z" />
    <glyph glyph-name="iacute" unicode="&#xed;" horiz-adv-x="669" 
d="M397 0h-254l162 870h-137l42 201h387zM524 1285h-216l205 333h284z" />
    <glyph glyph-name="icircumflex" unicode="&#xee;" horiz-adv-x="669" 
d="M397 0h-254l162 870h-137l42 201h387zM603 1285l-118 143l-191 -146h-271l432 358h139l290 -355h-281z" />
    <glyph glyph-name="idieresis" unicode="&#xef;" horiz-adv-x="669" 
d="M397 0h-254l162 870h-137l42 201h387zM545 1401q0 53 49 84q42 28 98 28q55 0 98 -28q50 -32 50 -84q0 -54 -49 -85q-43 -28 -99 -28t-98 28q-49 32 -49 85zM72 1401q0 52 50 84q43 28 98 28q56 0 98 -28q49 -31 49 -84q0 -52 -49 -85q-43 -28 -98 -28q-56 0 -99 28
q-49 31 -49 85z" />
    <glyph glyph-name="eth" unicode="&#xf0;" horiz-adv-x="1096" 
d="M995 885q22 -50 22 -120q0 -322 -290 -455q-155 -71 -170 -96q68 13 106 13q111 0 188 -65q82 -69 82 -178q0 -216 -165 -319q-137 -85 -367 -85q-96 0 -211 37.5t-190 94.5l109 189q143 -102 297 -102q278 0 278 150q0 65 -115 85l-191 34q-107 33 -107 124q0 53 88 107
q-106 30 -174 113q-71 86 -71 194q0 220 146 354q142 131 364 131q138 0 233 -59l94 102l147 -146zM368 628q0 -73 30 -123q37 -59 105 -59q116 0 188 94q66 87 66 206q0 141 -147 141q-112 0 -177 -72.5t-65 -186.5zM362 1610h214q-16 -55 -16 -73q0 -68 130 -68
q162 0 192 141h214q-70 -325 -434 -325q-313 0 -313 236q0 32 13 89z" />
    <glyph glyph-name="ntilde" unicode="&#xf1;" horiz-adv-x="1151" 
d="M947 0h-259l117 624q14 75 14 126q0 133 -157 133q-134 0 -241 -113l-143 -770h-251l151 803q4 21 4 58q0 89 -29 190l245 45l23 -120q132 115 331 115q330 0 330 -309q0 -55 -14 -130zM443 1285h-160q22 99 81 170q70 83 162 83q48 0 148 -43t127 -43q34 0 62.5 26
t33.5 60h162q-19 -87 -85 -165q-74 -88 -155 -88q-40 0 -145 46.5t-148 46.5q-56 0 -83 -93z" />
    <glyph glyph-name="ograve" unicode="&#xf2;" horiz-adv-x="1167" 
d="M72 401q0 284 168 482q178 208 457 208q204 0 316 -104q115 -107 115 -309q0 -290 -166 -488q-176 -210 -461 -210q-204 0 -316.5 109t-112.5 312zM332 413q0 -229 197 -229q168 0 261 167q77 138 77 320q0 216 -197 216q-164 0 -259 -162q-79 -136 -79 -312zM637 1285
l-153 333h280l35 -333h-162z" />
    <glyph glyph-name="oacute" unicode="&#xf3;" horiz-adv-x="1167" 
d="M72 401q0 284 168 482q178 208 457 208q204 0 316 -104q115 -107 115 -309q0 -290 -166 -488q-176 -210 -461 -210q-204 0 -316.5 109t-112.5 312zM332 413q0 -229 197 -229q168 0 261 167q77 138 77 320q0 216 -197 216q-164 0 -259 -162q-79 -136 -79 -312zM725 1285
h-216l205 333h284z" />
    <glyph glyph-name="ocircumflex" unicode="&#xf4;" horiz-adv-x="1167" 
d="M72 401q0 284 168 482q178 208 457 208q204 0 316 -104q115 -107 115 -309q0 -290 -166 -488q-176 -210 -461 -210q-204 0 -316.5 109t-112.5 312zM332 413q0 -229 197 -229q168 0 261 167q77 138 77 320q0 216 -197 216q-164 0 -259 -162q-79 -136 -79 -312zM843 1285
l-118 143l-191 -146h-271l432 358h139l290 -355h-281z" />
    <glyph glyph-name="otilde" unicode="&#xf5;" horiz-adv-x="1167" 
d="M72 401q0 284 168 482q178 208 457 208q204 0 316 -104q115 -107 115 -309q0 -290 -166 -488q-176 -210 -461 -210q-204 0 -316.5 109t-112.5 312zM332 413q0 -229 197 -229q168 0 261 167q77 138 77 320q0 216 -197 216q-164 0 -259 -162q-79 -136 -79 -312zM469 1285
h-160q22 99 81 170q70 83 162 83q48 0 148 -43t127 -43q34 0 62.5 26t33.5 60h162q-19 -87 -85 -165q-74 -88 -155 -88q-40 0 -145 46.5t-148 46.5q-56 0 -83 -93z" />
    <glyph glyph-name="odieresis" unicode="&#xf6;" horiz-adv-x="1167" 
d="M72 401q0 284 168 482q178 208 457 208q204 0 316 -104q115 -107 115 -309q0 -290 -166 -488q-176 -210 -461 -210q-204 0 -316.5 109t-112.5 312zM332 413q0 -229 197 -229q168 0 261 167q77 138 77 320q0 216 -197 216q-164 0 -259 -162q-79 -136 -79 -312zM790 1401
q0 53 49 84q42 28 98 28q55 0 98 -28q50 -32 50 -84q0 -54 -49 -85q-43 -28 -99 -28t-98 28q-49 32 -49 85zM317 1401q0 52 50 84q43 28 98 28q56 0 98 -28q49 -31 49 -84q0 -52 -49 -85q-43 -28 -98 -28q-56 0 -99 28q-49 31 -49 85z" />
    <glyph glyph-name="divide" unicode="&#xf7;" 
d="M763 1020q0 -62 -44 -106.5t-106 -44.5t-106 44.5t-44 106.5t44 106t106 44t106 -44t44 -106zM1062 736v-201h-898v201h898zM763 230q0 -62 -44 -106.5t-106 -44.5t-106 44.5t-44 106.5t44 106t106 44t106 -44t44 -106z" />
    <glyph glyph-name="oslash" unicode="&#xf8;" horiz-adv-x="1167" 
d="M1185 1091l-131 -151q74 -102 74 -262q0 -290 -166 -488q-176 -210 -461 -210q-139 0 -237 52l-58 -67h-208l148 170q-74 104 -74 266q0 284 168 482q178 208 457 208q140 0 238 -50l44 50h206zM780 863q-44 24 -110 24q-164 0 -259 -162q-79 -136 -79 -312q0 -32 4 -60z
M419 210q44 -26 110 -26q168 0 261 167q77 138 77 320q0 27 -3 51z" />
    <glyph glyph-name="ugrave" unicode="&#xf9;" horiz-adv-x="1141" 
d="M928 -1h-250l15 78q-134 -97 -336 -97q-139 0 -217 79.5t-78 218.5q0 44 11 103l129 690h254l-127 -680q-8 -43 -8 -73q0 -130 146 -130q114 0 197 75t103 189l110 619h251zM612 1285l-153 333h280l35 -333h-162z" />
    <glyph glyph-name="uacute" unicode="&#xfa;" horiz-adv-x="1141" 
d="M928 -1h-250l15 78q-134 -97 -336 -97q-139 0 -217 79.5t-78 218.5q0 44 11 103l129 690h254l-127 -680q-8 -43 -8 -73q0 -130 146 -130q114 0 197 75t103 189l110 619h251zM735 1285h-216l205 333h284z" />
    <glyph glyph-name="ucircumflex" unicode="&#xfb;" horiz-adv-x="1141" 
d="M928 -1h-250l15 78q-134 -97 -336 -97q-139 0 -217 79.5t-78 218.5q0 44 11 103l129 690h254l-127 -680q-8 -43 -8 -73q0 -130 146 -130q114 0 197 75t103 189l110 619h251zM843 1285l-118 143l-191 -146h-271l432 358h139l290 -355h-281z" />
    <glyph glyph-name="udieresis" unicode="&#xfc;" horiz-adv-x="1141" 
d="M928 -1h-250l15 78q-134 -97 -336 -97q-139 0 -217 79.5t-78 218.5q0 44 11 103l129 690h254l-127 -680q-8 -43 -8 -73q0 -130 146 -130q114 0 197 75t103 189l110 619h251zM750 1401q0 53 49 84q42 28 98 28q55 0 98 -28q50 -32 50 -84q0 -54 -49 -85q-43 -28 -99 -28
t-98 28q-49 32 -49 85zM277 1401q0 52 50 84q43 28 98 28q56 0 98 -28q49 -31 49 -84q0 -52 -49 -85q-43 -28 -98 -28q-56 0 -99 28q-49 31 -49 85z" />
    <glyph glyph-name="yacute" unicode="&#xfd;" horiz-adv-x="669" 
d="M397 0h-254l162 870h-137l42 201h387z" />
    <glyph glyph-name="thorn" unicode="&#xfe;" horiz-adv-x="940" 
d="M791 778q-120 105 -220 105q-57 0 -100 -24q-53 -29 -53 -81t112 -118q82 -42 163 -83q132 -74 132 -216q0 -187 -147 -290q-129 -91 -324 -91q-176 0 -344 99l132 227q125 -118 245 -118q72 0 120 34q55 38 55 107q0 48 -107 112q-76 40 -153 81q-147 82 -147 228
q0 164 137 259q121 82 293 82q124 0 322 -84zM111 -450v123q18 -5 39 -5q58 0 108 25q63 31 63 83q0 35 -29 64.5t-64 30.5l62 86q230 -15 230 -186q0 -115 -109 -176q-89 -50 -213 -50q-15 0 -87 5z" />
    <glyph glyph-name="ydieresis" unicode="&#xff;" horiz-adv-x="1155" 
d="M620 -107q-149 -311 -578 -313v241q284 0 363 183l52 120q-137 39 -185 288l-127 659h263q117 -704 149 -735l344 735h283zM815 1401q0 53 49 84q42 28 98 28q55 0 98 -28q50 -32 50 -84q0 -54 -49 -85q-43 -28 -99 -28t-98 28q-49 32 -49 85zM342 1401q0 52 50 84
q43 28 98 28q56 0 98 -28q49 -31 49 -84q0 -52 -49 -85q-43 -28 -98 -28q-56 0 -99 28q-49 31 -49 85z" />
    <glyph glyph-name="Abreve" unicode="&#x102;" horiz-adv-x="1257" 
d="M918 0l-46 298h-524l-172 -298h-271l890 1485h93l301 -1485h-271zM760 1040l-301 -547h384zM557 1910h214q-16 -55 -16 -73q0 -68 130 -68q162 0 192 141h214q-70 -325 -434 -325q-313 0 -313 236q0 32 13 89z" />
    <glyph glyph-name="abreve" unicode="&#x103;" horiz-adv-x="1214" 
d="M988 384q-7 -37 -7 -82q0 -220 34 -302h-156q-70 0 -104 107q-128 -127 -319 -127q-175 0 -270 98t-95 273q0 298 173 511q186 229 477 229q271 0 391 -50zM699 887q-180 0 -283 -183q-85 -152 -85 -347q0 -173 170 -173q159 0 250 281q40 121 82 402q-71 20 -134 20z
M448 1610h214q-16 -55 -16 -73q0 -68 130 -68q162 0 192 141h214q-70 -325 -434 -325q-313 0 -313 236q0 32 13 89z" />
    <glyph glyph-name="Aogonek" unicode="&#x104;" horiz-adv-x="1257" 
d="M894 157l-22 141h-524l-172 -298h-271l890 1485h93l301 -1485h-200q-23 0 -59 -28q-31 -24 -46 -47q-22 -34 -22 -70q0 -44 69 -44q86 0 166 61v-205q-132 -40 -204 -40q-108 0 -182 50q-86 58 -86 160q0 193 269 320zM760 1040l-301 -547h384z" />
    <glyph glyph-name="aogonek" unicode="&#x105;" horiz-adv-x="1214" 
d="M778 56q-14 23 -23 51q-128 -127 -319 -127q-175 0 -270 98t-95 273q0 298 173 511q186 229 477 229q271 0 391 -50l-124 -657q-7 -37 -7 -82q0 -220 34 -302h-6q-23 0 -59 -28q-31 -24 -46 -47q-22 -34 -22 -70q0 -44 69 -44q86 0 166 61v-205q-132 -40 -204 -40
q-108 0 -182 50q-86 58 -86 160q0 131 133 219zM699 887q-180 0 -283 -183q-85 -152 -85 -347q0 -173 170 -173q159 0 250 281q40 121 82 402q-71 20 -134 20z" />
    <glyph glyph-name="Cacute" unicode="&#x106;" horiz-adv-x="1255" 
d="M1165 1183q-114 81 -253 81q-237 0 -393 -234q-137 -207 -137 -456q0 -161 75 -260q83 -111 239 -111q230 0 361 125l-5 -229q-142 -124 -409 -124q-244 0 -389 161q-141 156 -141 402q0 389 207 658q226 294 604 294q177 0 314 -58zM963 1585h-216l205 333h284z" />
    <glyph glyph-name="cacute" unicode="&#x107;" horiz-adv-x="1009" 
d="M927 806q-105 77 -212 77q-180 0 -285 -139q-96 -125 -96 -311q0 -98 56 -167q59 -75 155 -75q134 0 315 114l-30 -261q-153 -64 -315 -64q-201 0 -319 110q-121 112 -121 312q0 293 164 486q174 203 462 203q160 0 277 -66zM710 1285h-216l205 333h284z" />
    <glyph glyph-name="Ccaron" unicode="&#x10c;" horiz-adv-x="1255" 
d="M1165 1183q-114 81 -253 81q-237 0 -393 -234q-137 -207 -137 -456q0 -161 75 -260q83 -111 239 -111q230 0 361 125l-5 -229q-142 -124 -409 -124q-244 0 -389 161q-141 156 -141 402q0 389 207 658q226 294 604 294q177 0 314 -58zM951 1565h-140l-281 358h255
l130 -146l178 143h298z" />
    <glyph glyph-name="ccaron" unicode="&#x10d;" horiz-adv-x="1009" 
d="M927 806q-105 77 -212 77q-180 0 -285 -139q-96 -125 -96 -311q0 -98 56 -167q59 -75 155 -75q134 0 315 114l-30 -261q-153 -64 -315 -64q-201 0 -319 110q-121 112 -121 312q0 293 164 486q174 203 462 203q160 0 277 -66zM743 1285h-140l-281 358h255l130 -146
l178 143h298z" />
    <glyph glyph-name="Dcaron" unicode="&#x10e;" horiz-adv-x="1295" 
d="M397 0h-354l267 1462q146 26 274 26q317 0 498 -137q203 -153 203 -459q0 -407 -240.5 -649.5t-647.5 -242.5zM527 1251l-178 -1018q44 -4 80 -4q279 0 438 202q146 186 146 472q0 166 -113 264q-108 94 -276 94q-48 0 -97 -10zM770 1565h-140l-281 358h255l130 -146
l178 143h298z" />
    <glyph glyph-name="dcaron" unicode="&#x10f;" horiz-adv-x="1446" 
d="M969 0h-249l19 100q-83 -120 -275 -120q-189 0 -295 112q-105 109 -105 299q0 299 161 493q172 207 465 207q49 0 114 -19q70 -20 104 -48l92 486h242zM707 880q-181 0 -285 -138q-93 -124 -93 -312q0 -244 202 -244q218 0 283 348l48 256q-48 90 -155 90zM1397 1048
l-63 85q96 73 96 123q0 22 -34.5 60.5t-34.5 75.5q0 118 117 118q123 0 123 -139q0 -196 -204 -323z" />
    <glyph glyph-name="Dslash" unicode="&#x110;" horiz-adv-x="1316" 
d="M1192 133q-226 -158 -553 -158q-251 0 -409 160t-158 411q0 427 230 681q239 263 662 263q224 0 333 -100l-78 -217q-147 89 -293 89q-274 0 -436 -207q-148 -189 -148 -471q0 -177 97 -279t273 -102q143 0 250 79l53 290h-203l40 218h461zM569 1910h214q-16 -55 -16 -73
q0 -68 130 -68q162 0 192 141h214q-70 -325 -434 -325q-313 0 -313 236q0 32 13 89z" />
    <glyph glyph-name="dcroat" unicode="&#x111;" horiz-adv-x="1215" 
d="M1328 1198h-142l-217 -1198h-249l19 100q-83 -120 -275 -120q-189 0 -295 112q-105 109 -105 299q0 299 161 493q172 207 465 207q49 0 114 -19q70 -20 104 -48l33 174h-271l30 150h269l31 162h242l-29 -162h145zM707 880q-181 0 -285 -138q-93 -124 -93 -312
q0 -244 202 -244q218 0 283 348l48 256q-48 90 -155 90z" />
    <glyph glyph-name="Eogonek" unicode="&#x118;" horiz-adv-x="1215" 
d="M581 0h-539l270 1465h943l-43 -228h-675l-61 -337h484l-41 -218h-484l-82 -454h664l-43 -228h-85q-23 0 -59 -28q-31 -24 -46 -47q-22 -34 -22 -70q0 -44 69 -44q86 0 166 61v-205q-132 -40 -204 -40q-108 0 -182 50q-86 58 -86 160q0 89 56 163z" />
    <glyph glyph-name="eogonek" unicode="&#x119;" horiz-adv-x="1130" 
d="M390 -2q-153 43 -233 168q-74 116 -74 282q0 283 179.5 463t462.5 180q155 0 256 -59q123 -73 123 -217q0 -195 -182 -300q-149 -87 -360 -87q-112 0 -219 37q-2 -26 -2 -45q0 -232 251 -232q63 0 146 34q80 34 128 78l-29 -263q-62 -28 -158 -44q-107 -43 -107 -138
q0 -44 69 -44q86 0 166 61v-205q-132 -40 -204 -40q-108 0 -182 50q-86 58 -86 160q0 88 55 161zM391 654q65 -19 141 -19q113 0 199 29q125 42 125 132q0 87 -190 87q-84 0 -166 -77q-70 -64 -109 -152z" />
    <glyph glyph-name="Ecaron" unicode="&#x11a;" horiz-adv-x="1215" 
d="M1212 1237h-675l-61 -337h484l-41 -218h-484l-82 -454h664l-43 -228h-932l270 1465h943zM841 1565h-140l-281 358h255l130 -146l178 143h298z" />
    <glyph glyph-name="ecaron" unicode="&#x11b;" horiz-adv-x="1130" 
d="M343 465q-2 -26 -2 -45q0 -232 251 -232q63 0 146 34q80 34 128 78l-29 -263q-127 -57 -310 -57q-207 0 -328 131q-116 128 -116 337q0 283 179.5 463t462.5 180q155 0 256 -59q123 -73 123 -217q0 -195 -182 -300q-149 -87 -360 -87q-112 0 -219 37zM391 654
q65 -19 141 -19q113 0 199 29q125 42 125 132q0 87 -190 87q-84 0 -166 -77q-70 -64 -109 -152zM838 1285h-140l-281 358h255l130 -146l178 143h298z" />
    <glyph glyph-name="Gbreve" unicode="&#x11e;" horiz-adv-x="1385" 
d="M1204 133q-226 -158 -553 -158q-251 0 -409 160t-158 411q0 427 230 681q239 263 662 263q224 0 333 -100l-78 -217q-147 89 -293 89q-274 0 -436 -207q-148 -189 -148 -471q0 -177 97 -279t273 -102q143 0 250 79l53 290h-203l40 218h461zM581 1910h214q-16 -55 -16 -73
q0 -68 130 -68q162 0 192 141h214q-70 -325 -434 -325q-313 0 -313 236q0 32 13 89z" />
    <glyph glyph-name="gbreve" unicode="&#x11f;" horiz-adv-x="1096" 
d="M995 885q22 -50 22 -120q0 -322 -290 -455q-155 -71 -170 -96q68 13 106 13q111 0 188 -65q82 -69 82 -178q0 -216 -165 -319q-137 -85 -367 -85q-96 0 -211 37.5t-190 94.5l109 189q143 -102 297 -102q278 0 278 150q0 65 -115 85l-191 34q-107 33 -107 124q0 53 88 107
q-106 30 -174 113q-71 86 -71 194q0 220 146 354q142 131 364 131q138 0 233 -59l94 102l147 -146zM368 628q0 -73 30 -123q37 -59 105 -59q116 0 188 94q66 87 66 206q0 141 -147 141q-112 0 -177 -72.5t-65 -186.5zM362 1610h214q-16 -55 -16 -73q0 -68 130 -68
q162 0 192 141h214q-70 -325 -434 -325q-313 0 -313 236q0 32 13 89z" />
    <glyph glyph-name="Idotaccent" unicode="&#x130;" horiz-adv-x="570" 
d="M329 0h-261l269 1465h262zM348 1773q0 55 50 88q45 29 102 29t102 -30q51 -33 51 -87q0 -55 -51 -88q-45 -30 -102 -30q-58 0 -102 30q-50 33 -50 88z" />
    <glyph glyph-name="dotlessi" unicode="&#x131;" horiz-adv-x="669" 
d="M397 0h-254l162 870h-137l42 201h387z" />
    <glyph glyph-name="Lacute" unicode="&#x139;" horiz-adv-x="1082" 
d="M974 0h-924l269 1465h262l-227 -1237h662zM632 1585h-216l205 333h284z" />
    <glyph glyph-name="lacute" unicode="&#x13a;" horiz-adv-x="655" 
d="M477 84q-59 -94 -179 -94q-92 0 -144 61q-50 58 -50 151q0 122 48 351l201 957h248l-206 -997q-44 -213 -44 -304q0 -56 35 -90.5t91 -34.5zM673 1585h-216l205 333h284z" />
    <glyph glyph-name="Lcaron" unicode="&#x13d;" horiz-adv-x="1082" 
d="M974 0h-924l269 1465h262l-227 -1237h662zM854 1048l-63 85q96 73 96 123q0 22 -34.5 60.5t-34.5 75.5q0 118 117 118q123 0 123 -139q0 -196 -204 -323z" />
    <glyph glyph-name="lcaron" unicode="&#x13e;" horiz-adv-x="830" 
d="M477 84q-59 -94 -179 -94q-92 0 -144 61q-50 58 -50 151q0 122 48 351l201 957h248l-206 -997q-44 -213 -44 -304q0 -56 35 -90.5t91 -34.5zM765 1048l-63 85q96 73 96 123q0 22 -34.5 60.5t-34.5 75.5q0 118 117 118q123 0 123 -139q0 -196 -204 -323z" />
    <glyph glyph-name="Ldot" unicode="&#x13f;" horiz-adv-x="1082" 
d="M974 0h-924l269 1465h262l-227 -1237h662zM864 961q63 0 106.5 -43.5t43.5 -106.5t-43.5 -107t-106.5 -44q-62 0 -106 44.5t-44 106.5t44 106t106 44z" />
    <glyph glyph-name="ldot" unicode="&#x140;" horiz-adv-x="915" 
d="M470 84q-59 -94 -179 -94q-92 0 -144 61q-50 58 -50 151q0 122 48 351l201 957h248l-206 -997q-44 -213 -44 -304q0 -56 35 -90.5t91 -34.5zM785 961q63 0 106.5 -43.5t43.5 -106.5t-43.5 -107t-106.5 -44q-62 0 -106 44.5t-44 106.5t44 106t106 44z" />
    <glyph glyph-name="Lslash" unicode="&#x141;" horiz-adv-x="1082" 
d="M661 887l-202 -87l-105 -572h662l-42 -228h-924l124 677l-163 -70v168l197 85l111 605h262l-88 -481l168 75v-172z" />
    <glyph glyph-name="lslash" unicode="&#x142;" horiz-adv-x="655" 
d="M477 84q-59 -94 -179 -94q-92 0 -144 61q-50 58 -50 151q0 123 48 351l29 138l-148 -71l-1 195l194 90l127 605h248l-98 -477l163 76v-185l-206 -99l-65 -312q-44 -211 -44 -304q0 -56 35 -90.5t91 -34.5z" />
    <glyph glyph-name="Nacute" unicode="&#x143;" horiz-adv-x="1352" 
d="M1113 -20h-101l-540 947l-162 -927h-258l269 1465h120l529 -908l159 908h257zM922 1585h-216l205 333h284z" />
    <glyph glyph-name="nacute" unicode="&#x144;" horiz-adv-x="1151" 
d="M947 0h-259l117 624q14 75 14 126q0 133 -157 133q-134 0 -241 -113l-143 -770h-251l151 803q4 21 4 58q0 89 -29 190l245 45l23 -120q132 115 331 115q330 0 330 -309q0 -55 -14 -130zM774 1285h-216l205 333h284z" />
    <glyph glyph-name="Ncaron" unicode="&#x147;" horiz-adv-x="1352" 
d="M1113 -20h-101l-540 947l-162 -927h-258l269 1465h120l529 -908l159 908h257zM902 1565h-140l-281 358h255l130 -146l178 143h298z" />
    <glyph glyph-name="ncaron" unicode="&#x148;" horiz-adv-x="1151" 
d="M947 0h-259l117 624q14 75 14 126q0 133 -157 133q-134 0 -241 -113l-143 -770h-251l151 803q4 21 4 58q0 89 -29 190l245 45l23 -120q132 115 331 115q330 0 330 -309q0 -55 -14 -130zM748 1285h-140l-281 358h255l130 -146l178 143h298z" />
    <glyph glyph-name="Odblacute" unicode="&#x150;" horiz-adv-x="1438" 
d="M99 545q0 374 193 644q217 302 576 302q264 0 405.5 -139.5t141.5 -403.5q0 -413 -197 -677q-220 -296 -618 -296q-242 0 -377 168q-124 154 -124 402zM369 572q0 -153 54 -249q68 -120 209 -120q255 0 397 246q117 204 117 479q0 336 -296 336q-221 0 -362 -245
q-119 -209 -119 -447zM1192 1585h-215l177 283h286zM822 1585h-215l177 283h286z" />
    <glyph glyph-name="odblacute" unicode="&#x151;" horiz-adv-x="1167" 
d="M72 401q0 284 168 482q178 208 457 208q204 0 316 -104q115 -107 115 -309q0 -290 -166 -488q-176 -210 -461 -210q-204 0 -316.5 109t-112.5 312zM332 413q0 -229 197 -229q168 0 261 167q77 138 77 320q0 216 -197 216q-164 0 -259 -162q-79 -136 -79 -312zM979 1285
h-215l177 283h286zM609 1285h-215l177 283h286z" />
    <glyph glyph-name="OE" unicode="&#x152;" horiz-adv-x="2167" 
d="M2164 1237h-675l-61 -337h484l-41 -218h-481l-85 -454h664l-43 -228h-932l15 81q-184 -106 -409 -106q-243 0 -377 167q-124 154 -124 403q0 375 193 644q216 302 576 302q233 0 379 -117l17 91h943zM369 572q0 -154 54 -249q67 -120 209 -120q255 0 397 246
q117 204 117 479q0 336 -296 336q-222 0 -362 -245q-119 -208 -119 -447z" />
    <glyph glyph-name="oe" unicode="&#x153;" horiz-adv-x="1900" 
d="M1113 465q-2 -25 -2 -45q0 -125 64 -180q59 -52 187 -52q65 0 146 34q77 33 128 78l-29 -263q-128 -57 -310 -57q-271 0 -377 167q-174 -167 -419 -167q-204 0 -316.5 109t-112.5 312q0 284 168 482q178 208 457 208q248 0 361 -157q178 157 437 157q155 0 256 -59
q123 -72 123 -217q0 -195 -182 -300q-150 -87 -360 -87q-110 0 -219 37zM332 413q0 -229 197 -229q167 0 261 168q77 138 77 319q0 216 -197 216q-164 0 -259 -162q-79 -136 -79 -312zM1161 654q65 -19 141 -19q113 0 199 29q125 42 125 132q0 87 -190 87q-74 0 -162 -80
q-78 -71 -113 -149z" />
    <glyph glyph-name="Racute" unicode="&#x154;" horiz-adv-x="1277" 
d="M845 649l327 -649h-293l-280 606q-68 1 -167 8l-113 -614h-268l268 1465q292 15 383 15q210 0 343 -72q169 -92 169 -284q0 -175 -99.5 -305t-269.5 -170zM546 1240l-75 -410q59 -6 105 -6q378 0 378 240q0 117 -105 159q-67 27 -208 27q-14 0 -95 -10zM762 1585h-216
l205 333h284z" />
    <glyph glyph-name="racute" unicode="&#x155;" horiz-adv-x="915" 
d="M869 817q-89 66 -157 66q-101 0 -184 -91q-75 -82 -95 -187l-113 -605h-251l200 1071h251l-17 -93q133 113 294 113q41 0 147 -19zM684 1285h-216l205 333h284z" />
    <glyph glyph-name="Rcaron" unicode="&#x158;" horiz-adv-x="1277" 
d="M845 649l327 -649h-293l-280 606q-68 1 -167 8l-113 -614h-268l268 1465q292 15 383 15q210 0 343 -72q169 -92 169 -284q0 -175 -99.5 -305t-269.5 -170zM546 1240l-75 -410q59 -6 105 -6q378 0 378 240q0 117 -105 159q-67 27 -208 27q-14 0 -95 -10zM820 1568h-140
l-281 358h255l130 -146l178 143h298z" />
    <glyph glyph-name="rcaron" unicode="&#x159;" horiz-adv-x="915" 
d="M869 817q-89 66 -157 66q-101 0 -184 -91q-75 -82 -95 -187l-113 -605h-251l200 1071h251l-17 -93q133 113 294 113q41 0 147 -19zM692 1285h-140l-281 358h255l130 -146l178 143h298z" />
    <glyph glyph-name="Sacute" unicode="&#x15a;" horiz-adv-x="1027" 
d="M940 1176q-116 85 -236 85q-241 0 -241 -182q0 -75 128 -184l151 -128q61 -52 84 -75q41 -41 70 -89q60 -98 60 -201q0 -214 -170 -328q-146 -99 -371 -99q-197 0 -372 85l84 257q134 -101 311 -101q98 0 165 38q83 46 83 137q0 81 -128 183l-157 125q-60 48 -84 71
q-38 38 -67 86q-56 93 -56 196q0 208 141 327q132 111 344 111q70 0 174 -15q119 -16 167 -39zM770 1585h-216l205 333h284z" />
    <glyph glyph-name="sacute" unicode="&#x15b;" horiz-adv-x="940" 
d="M791 778q-120 105 -220 105q-57 0 -100 -24q-53 -29 -53 -81t112 -118q82 -42 163 -83q132 -74 132 -216q0 -187 -147 -290q-129 -91 -324 -91q-176 0 -344 99l132 227q125 -118 245 -118q72 0 120 34q55 38 55 107q0 48 -107 112q-76 40 -153 81q-147 82 -147 228
q0 164 137 259q121 82 293 82q124 0 322 -84zM653 1285h-216l205 333h284z" />
    <glyph glyph-name="Scedilla" unicode="&#x15e;" horiz-adv-x="1027" 
d="M940 1176q-116 85 -236 85q-241 0 -241 -182q0 -75 128 -184l151 -128q61 -52 84 -75q41 -41 70 -89q60 -98 60 -201q0 -214 -170 -328q-146 -99 -371 -99q-197 0 -372 85l84 257q134 -101 311 -101q98 0 165 38q83 46 83 137q0 81 -128 183l-157 125q-60 48 -84 71
q-38 38 -67 86q-56 93 -56 196q0 208 141 327q132 111 344 111q70 0 174 -15q119 -16 167 -39zM188 -450v123q18 -5 39 -5q58 0 108 25q63 31 63 83q0 35 -29 64.5t-64 30.5l62 86q230 -15 230 -186q0 -115 -109 -176q-89 -50 -213 -50q-15 0 -87 5z" />
    <glyph glyph-name="scedilla" unicode="&#x15f;" horiz-adv-x="940" 
d="M791 778q-120 105 -220 105q-57 0 -100 -24q-53 -29 -53 -81t112 -118q82 -42 163 -83q132 -74 132 -216q0 -187 -147 -290q-129 -91 -324 -91q-176 0 -344 99l132 227q125 -118 245 -118q72 0 120 34q55 38 55 107q0 48 -107 112q-76 40 -153 81q-147 82 -147 228
q0 164 137 259q121 82 293 82q124 0 322 -84zM111 -450v123q18 -5 39 -5q58 0 108 25q63 31 63 83q0 35 -29 64.5t-64 30.5l62 86q230 -15 230 -186q0 -115 -109 -176q-89 -50 -213 -50q-15 0 -87 5z" />
    <glyph glyph-name="Scaron" unicode="&#x160;" horiz-adv-x="1027" 
d="M940 1176q-116 85 -236 85q-241 0 -241 -182q0 -75 128 -184l151 -128q61 -52 84 -75q41 -41 70 -89q60 -98 60 -201q0 -214 -170 -328q-146 -99 -371 -99q-197 0 -372 85l84 257q134 -101 311 -101q98 0 165 38q83 46 83 137q0 81 -128 183l-157 125q-60 48 -84 71
q-38 38 -67 86q-56 93 -56 196q0 208 141 327q132 111 344 111q70 0 174 -15q119 -16 167 -39zM728 1565h-140l-281 358h255l130 -146l178 143h298z" />
    <glyph glyph-name="scaron" unicode="&#x161;" horiz-adv-x="940" 
d="M791 778q-120 105 -220 105q-57 0 -100 -24q-53 -29 -53 -81t112 -118q82 -42 163 -83q132 -74 132 -216q0 -187 -147 -290q-129 -91 -324 -91q-176 0 -344 99l132 227q125 -118 245 -118q72 0 120 34q55 38 55 107q0 48 -107 112q-76 40 -153 81q-147 82 -147 228
q0 164 137 259q121 82 293 82q124 0 322 -84zM611 1285h-140l-281 358h255l130 -146l178 143h298z" />
    <glyph glyph-name="Tcedilla" unicode="&#x162;" horiz-adv-x="1403" 
d="M1391 1237h-462l-226 -1237h-263l226 1237h-466l42 228h1191zM439 -552l-63 85q96 73 96 123q0 22 -34.5 60.5t-34.5 75.5q0 118 117 118q123 0 123 -139q0 -196 -204 -323z" />
    <glyph glyph-name="tcedilla" unicode="&#x163;" horiz-adv-x="897" 
d="M841 870h-295l-108 -475q-13 -57 -13 -95q0 -110 124 -110q55 0 180 52v-225q-108 -37 -294 -37q-122 0 -196 75.5t-74 198.5q0 39 9 79l121 537h-124l43 201h124l42 219l286 104l-75 -323h293zM292 -552l-63 85q96 73 96 123q0 22 -34.5 60.5t-34.5 75.5q0 118 117 118
q123 0 123 -139q0 -196 -204 -323z" />
    <glyph glyph-name="Tcaron" unicode="&#x164;" horiz-adv-x="1403" 
d="M1391 1237h-462l-226 -1237h-263l226 1237h-466l42 228h1191zM858 1568h-140l-281 358h255l130 -146l178 143h298z" />
    <glyph glyph-name="tcaron" unicode="&#x165;" horiz-adv-x="1238" 
d="M841 870h-295l-108 -475q-13 -57 -13 -95q0 -110 124 -110q55 0 180 52v-225q-108 -37 -294 -37q-122 0 -196 75.5t-74 198.5q0 39 9 79l121 537h-124l43 201h124l42 219l286 104l-75 -323h293zM1100 917l-63 85q96 73 96 123q0 22 -34.5 60.5t-34.5 75.5q0 118 117 118
q123 0 123 -139q0 -196 -204 -323z" />
    <glyph glyph-name="Uring" unicode="&#x16e;" horiz-adv-x="1355" 
d="M1217 451q-43 -232 -218 -358q-165 -118 -408 -118q-195 0 -322 88q-146 100 -146 286q0 53 11 113l184 1003h268l-187 -998q-5 -27 -5 -57q0 -101 64 -156q60 -51 163 -51q135 0 223 73t113 205l183 984h264zM915 1504q-96 0 -169 56q-78 61 -78 154t79 154
q72 55 168 55q97 0 168 -55q78 -60 78 -154t-78 -154q-71 -56 -168 -56zM918 1802q-47 0 -84 -22q-43 -26 -43 -70q0 -43 44 -69q37 -22 83 -22t83 22q44 26 44 69q0 44 -43 70q-37 22 -84 22z" />
    <glyph glyph-name="uring" unicode="&#x16f;" horiz-adv-x="1141" 
d="M928 -1h-250l15 78q-134 -97 -336 -97q-139 0 -217 79.5t-78 218.5q0 44 11 103l129 690h254l-127 -680q-8 -43 -8 -73q0 -130 146 -130q114 0 197 75t103 189l110 619h251zM689 1285q-96 0 -169 56q-78 61 -78 154t79 154q72 55 168 55q97 0 168 -55q78 -60 78 -154
t-78 -154q-71 -56 -168 -56zM692 1583q-47 0 -84 -22q-43 -26 -43 -70q0 -43 44 -69q37 -22 83 -22t83 22q44 26 44 69q0 44 -43 70q-37 22 -84 22z" />
    <glyph glyph-name="Udblacute" unicode="&#x170;" horiz-adv-x="1355" 
d="M1217 451q-43 -232 -218 -358q-165 -118 -408 -118q-195 0 -322 88q-146 100 -146 286q0 53 11 113l184 1003h268l-187 -998q-5 -27 -5 -57q0 -101 64 -156q60 -51 163 -51q135 0 223 73t113 205l183 984h264zM1173 1585h-215l177 283h286zM803 1585h-215l177 283h286z
" />
    <glyph glyph-name="udblacute" unicode="&#x171;" horiz-adv-x="1141" 
d="M928 -1h-250l15 78q-134 -97 -336 -97q-139 0 -217 79.5t-78 218.5q0 44 11 103l129 690h254l-127 -680q-8 -43 -8 -73q0 -130 146 -130q114 0 197 75t103 189l110 619h251zM979 1285h-215l177 283h286zM609 1285h-215l177 283h286z" />
    <glyph glyph-name="Ydieresis" unicode="&#x178;" horiz-adv-x="1400" 
d="M848 648l-119 -648h-258l121 656l-345 809h271l236 -573l439 573h297zM965 1771q0 53 49 84q42 28 98 28q55 0 98 -28q50 -32 50 -84q0 -54 -49 -85q-43 -28 -99 -28t-98 28q-49 32 -49 85zM492 1771q0 52 50 84q43 28 98 28q56 0 98 -28q49 -31 49 -84q0 -52 -49 -85
q-43 -28 -98 -28q-56 0 -99 28q-49 31 -49 85z" />
    <glyph glyph-name="Zacute" unicode="&#x179;" horiz-adv-x="1252" 
d="M482 228h597l-43 -228h-949v83l793 1154h-602l42 228h928v-83zM874 1585h-216l205 333h284z" />
    <glyph glyph-name="zacute" unicode="&#x17a;" horiz-adv-x="1091" 
d="M447 217h508l-41 -217h-886v85l626 769h-525l41 217h892v-89zM680 1285h-216l205 333h284z" />
    <glyph glyph-name="Zdot" unicode="&#x17b;" horiz-adv-x="1252" 
d="M482 228h597l-43 -228h-949v83l793 1154h-602l42 228h928v-83zM662 1703q0 55 50 88q45 29 102 29t102 -30q51 -33 51 -87q0 -55 -51 -88q-45 -30 -102 -30q-58 0 -102 30q-50 33 -50 88z" />
    <glyph glyph-name="zdot" unicode="&#x17c;" horiz-adv-x="1091" 
d="M447 217h508l-41 -217h-886v85l626 769h-525l41 217h892v-89zM488 1403q0 55 50 88q45 29 102 29t102 -30q51 -33 51 -87q0 -55 -51 -88q-45 -30 -102 -30q-58 0 -102 30q-50 33 -50 88z" />
    <glyph glyph-name="Zcaron" unicode="&#x17d;" horiz-adv-x="1252" 
d="M482 228h597l-43 -228h-949v83l793 1154h-602l42 228h928v-83zM842 1565h-140l-281 358h255l130 -146l178 143h298z" />
    <glyph glyph-name="zcaron" unicode="&#x17e;" horiz-adv-x="1091" 
d="M447 217h508l-41 -217h-886v85l626 769h-525l41 217h892v-89zM673 1285h-140l-281 358h255l130 -146l178 143h298z" />
    <glyph glyph-name="florin" unicode="&#x192;" 
d="M1169 1271q-81 36 -139 36q-144 0 -198 -236h246l-25 -201h-252l-160 -938q-26 -153 -140.5 -252t-269.5 -100l-53 166q71 16 128 71t70 125l167 928h-151l33 201h148q103 439 469 439q104 0 177 -43z" />
    <glyph glyph-name="circumflex" unicode="&#x2c6;" 
d="M843 1285l-118 143l-191 -146h-271l432 358h139l290 -355h-281z" />
    <glyph glyph-name="caron" unicode="&#x2c7;" 
d="M788 1285h-140l-281 358h255l130 -146l178 143h298z" />
    <glyph glyph-name="macron" unicode="&#x2c9;" 
d="M1151 1285h-809l38 141h809z" />
    <glyph glyph-name="breve" unicode="&#x2d8;" 
d="M448 1610h214q-16 -55 -16 -73q0 -68 130 -68q162 0 192 141h214q-70 -325 -434 -325q-313 0 -313 236q0 32 13 89z" />
    <glyph glyph-name="dotaccent" unicode="&#x2d9;" 
d="M648 1403q0 55 50 88q45 29 102 29t102 -30q51 -33 51 -87q0 -55 -51 -88q-45 -30 -102 -30q-58 0 -102 30q-50 33 -50 88z" />
    <glyph glyph-name="ring" unicode="&#x2da;" 
d="M771 1285q-96 0 -169 56q-78 61 -78 154t79 154q72 55 168 55q97 0 168 -55q78 -60 78 -154t-78 -154q-71 -56 -168 -56zM774 1583q-47 0 -84 -22q-43 -26 -43 -70q0 -43 44 -69q37 -22 83 -22t83 22q44 26 44 69q0 44 -43 70q-37 22 -84 22z" />
    <glyph glyph-name="ogonek" unicode="&#x2db;" 
d="M630 169l69 -169q-51 -14 -87 -53q-40 -41 -40 -92q0 -44 69 -44q86 0 166 61v-205q-132 -40 -204 -40q-108 0 -182 50q-86 58 -86 160q0 201 295 332z" />
    <glyph glyph-name="tilde" unicode="&#x2dc;" 
d="M549 1285h-160q22 99 81 170q70 83 162 83q48 0 148 -43t127 -43q34 0 62.5 26t33.5 60h162q-19 -87 -85 -165q-74 -88 -155 -88q-40 0 -145 46.5t-148 46.5q-56 0 -83 -93z" />
    <glyph glyph-name="hungarumlaut" unicode="&#x2dd;" 
d="M979 1285h-215l177 283h286zM609 1285h-215l177 283h286z" />
    <glyph glyph-name="Delta" unicode="&#x394;" horiz-adv-x="1198" 
d="M-32 0l27 153l767 1312h186l257 -1312l-27 -153h-1210zM779 1076l-481 -855h640z" />
    <glyph glyph-name="Omega" unicode="&#x3a9;" horiz-adv-x="1370" 
d="M1019 193h241l-33 -192l-550 -1l31 181q208 159 302 320q104 180 104 423q0 176 -69 257q-75 88 -247 88q-203 0 -339 -211q-119 -185 -119 -399q0 -132 49 -262q55 -147 150 -214l-32 -183l-550 1l34 192l226 -1q-143 166 -143 404q0 369 194 620q213 275 571 275
q241 0 389 -150t148 -391q0 -482 -357 -757z" />
    <glyph glyph-name="mu" unicode="&#x3bc;" horiz-adv-x="1140" 
d="M926 0h-250l17 80q-134 -97 -336 -97q-52 0 -103 13l-76 -416h-251l275 1491h254l-127 -679q-8 -43 -8 -72q0 -130 146 -130q114 0 198 76q82 73 102 187l110 618h251z" />
    <glyph glyph-name="pi" unicode="&#x3c0;" horiz-adv-x="1232" 
d="M1139 181l-33 -201q-385 0 -385 261q0 53 50 314l59 308h-277l-152 -863h-253l152 863h-167l36 208h1108l-36 -208h-158l-54 -290q-41 -220 -41 -261q0 -131 151 -131z" />
    <glyph glyph-name="endash" unicode="&#x2013;" horiz-adv-x="752" 
d="M63 502v201h581v-201h-581z" />
    <glyph glyph-name="emdash" unicode="&#x2014;" horiz-adv-x="1504" 
d="M63 502v201h1369v-201h-1369z" />
    <glyph glyph-name="quoteleft" unicode="&#x2018;" horiz-adv-x="752" 
d="M449 948l-94 -60q-121 160 -121 338q0 104 36 182q48 102 140 102q61 0 107 -38q50 -40 50 -99q0 -83 -51 -115q-23 -14 -86 -50q-48 -34 -48 -102q0 -42 67 -158z" />
    <glyph glyph-name="quoteright" unicode="&#x2019;" horiz-adv-x="752" 
d="M359 901l-67 89q130 104 130 179q0 32 -49 95t-49 99q0 147 145 147q155 0 155 -177q0 -266 -265 -432z" />
    <glyph glyph-name="quotesinglbase" unicode="&#x201a;" horiz-adv-x="752" 
d="M318 -414l-77 101q159 117 159 263q0 49 -58 101t-58 97q0 68 57 110q52 39 122 39q73 0 125 -58.5t52 -132.5q0 -302 -322 -520z" />
    <glyph glyph-name="quotedblleft" unicode="&#x201c;" 
d="M391 948l-94 -60q-121 160 -121 338q0 104 36 182q48 102 140 102q61 0 107 -38q50 -40 50 -99q0 -83 -51 -115q-23 -14 -86 -50q-48 -34 -48 -102q0 -42 67 -158zM821 948l-94 -60q-121 160 -121 338q0 104 36 182q48 102 140 102q61 0 107 -38q50 -40 50 -99
q0 -83 -51 -115q-23 -14 -86 -50q-48 -34 -48 -102q0 -42 67 -158z" />
    <glyph glyph-name="quotedblright" unicode="&#x201d;" 
d="M301 901l-67 89q130 104 130 179q0 32 -49 95t-49 99q0 147 145 147q155 0 155 -177q0 -266 -265 -432zM731 901l-67 89q130 104 130 179q0 32 -49 95t-49 99q0 147 145 147q155 0 155 -177q0 -266 -265 -432z" />
    <glyph glyph-name="quotedblbase" unicode="&#x201e;" 
d="M170 -414l-77 101q159 117 159 263q0 49 -58 101t-58 97q0 68 57 110q52 39 122 39q73 0 125 -58.5t52 -132.5q0 -302 -322 -520zM680 -414l-77 101q159 117 159 263q0 49 -58 101t-58 97q0 68 57 110q52 39 122 39q73 0 125 -58.5t52 -132.5q0 -302 -322 -520z" />
    <glyph glyph-name="dagger" unicode="&#x2020;" horiz-adv-x="940" 
d="M641 888l-198 -1122l-125 -120l-85 119l198 1123h-350l34 194h350l53 303h210l-53 -303h350l-34 -194h-350z" />
    <glyph glyph-name="daggerdbl" unicode="&#x2021;" horiz-adv-x="940" 
d="M524 221l-81 -455l-129 -128l-80 128l80 455h-350l34 194h350l83 473h-350l35 194h350l53 303h210l-53 -303h350l-35 -194h-350l-83 -473h350l-34 -194h-350z" />
    <glyph glyph-name="bullet" unicode="&#x2022;" horiz-adv-x="1074" 
d="M542 863q123 0 206 -83t83 -206t-83 -206t-206 -83t-206 83t-83 206t83 206t206 83z" />
    <glyph glyph-name="ellipsis" unicode="&#x2026;" horiz-adv-x="1504" 
d="M400 131q0 -62 -44 -106.5t-106 -44.5t-106 44.5t-44 106.5t44 106t106 44t106 -44t44 -106zM902 131q0 -62 -44 -106.5t-106 -44.5t-106 44.5t-44 106.5t44 106t106 44t106 -44t44 -106zM1404 131q0 -62 -44 -106.5t-106 -44.5t-106 44.5t-44 106.5t44 106t106 44
t106 -44t44 -106z" />
    <glyph glyph-name="perthousand" unicode="&#x2030;" horiz-adv-x="2135" 
d="M141 1027q0 188 101 320q111 144 293 144q250 0 250 -269q0 -183 -99 -313q-109 -141 -287 -141q-258 0 -258 259zM340 1058q0 -126 79 -126q91 0 136 102q35 77 35 181q0 112 -86 112q-83 0 -129 -98q-35 -77 -35 -171zM252 -20h-208l1190 1511h207zM712 240
q0 189 101 320q111 143 294 143q249 0 249 -269q0 -183 -99 -313q-109 -141 -287 -141q-258 0 -258 260zM911 271q0 -127 79 -127q92 0 137 102q34 76 34 182q0 111 -86 111q-83 0 -129 -98q-35 -76 -35 -170zM1422 240q0 189 101 320q111 143 294 143q249 0 249 -269
q0 -183 -99 -313q-109 -141 -287 -141q-258 0 -258 260zM1621 271q0 -127 79 -127q92 0 137 102q34 76 34 182q0 111 -86 111q-83 0 -129 -98q-35 -76 -35 -170z" />
    <glyph glyph-name="guilsinglleft" unicode="&#x2039;" horiz-adv-x="752" 
d="M141 519v96l415 285v-197l-189 -140l189 -124v-197z" />
    <glyph glyph-name="guilsinglright" unicode="&#x203a;" horiz-adv-x="752" 
d="M181 242v197l189 124l-189 140v197l415 -285v-96z" />
    <glyph glyph-name="fraction" unicode="&#x2044;" 
d="M256 -35h-188l884 1526h186z" />
    <glyph glyph-name="foursuperior" unicode="&#x2074;" horiz-adv-x="910" 
d="M881 796h-97l-37 -231h-166l37 231h-385l18 110l560 572h83l-87 -532h97zM458 946h185l37 214z" />
    <glyph glyph-name="franc" unicode="&#x20a3;" horiz-adv-x="1807" 
d="M1240 1237h-705l-61 -337h515l-41 -218h-515l-125 -682h-267l272 1465h969zM1760 817q-89 66 -157 66q-101 0 -184 -91q-75 -82 -95 -187l-113 -605h-251l200 1071h251l-17 -93q133 113 294 113q41 0 147 -19z" />
    <glyph glyph-name="euro" unicode="&#x20ac;" 
d="M39 519v151h116q8 81 25 159h-141v151h186q88 233 252 366q178 144 416 144q162 0 288 -58l-87 -231q-91 63 -212 63q-244 0 -389 -284h514l-50 -151h-524q-23 -79 -32 -159h496l-60 -151h-440q13 -139 78 -221q76 -95 208 -95q207 0 327 125v-249q-109 -104 -375 -104
q-227 0 -360 162q-121 149 -127 382h-109z" />
    <glyph glyph-name="trademark" unicode="&#x2122;" horiz-adv-x="1319" 
d="M499 1332v-594h-160v594h-218v139h726l147 -454l145 454h123l122 -732h-155l-66 364l-117 -369h-103l-123 374l-61 -369h-156l98 593h-202z" />
    <glyph glyph-name="Ohm" unicode="&#x2126;" horiz-adv-x="1370" 
d="M1019 193h241l-33 -192l-550 -1l31 181q208 159 302 320q104 180 104 423q0 176 -69 257q-75 88 -247 88q-203 0 -339 -211q-119 -185 -119 -399q0 -132 49 -262q55 -147 150 -214l-32 -183l-550 1l34 192l226 -1q-143 166 -143 404q0 369 194 620q213 275 571 275
q241 0 389 -150t148 -391q0 -482 -357 -757z" />
    <glyph glyph-name="partialdiff" unicode="&#x2202;" horiz-adv-x="1180" 
d="M745 1068q-45 97 -192 180q-142 80 -254 80l98 213q308 0 528 -259q209 -246 209 -560q0 -302 -174 -515q-187 -228 -482 -228q-189 0 -293 93q-110 98 -110 284q0 285 193 491t477 221zM838 885q-207 0 -355 -134q-153 -139 -153 -344q0 -95 51.5 -150.5t145.5 -55.5
q179 0 276 169q81 140 81 333q0 120 -46 182z" />
    <glyph glyph-name="ch259" unicode="&#x2206;" horiz-adv-x="1198" 
d="M-84 0l27 153l767 1312h186l257 -1312l-27 -153h-1210zM727 1076l-481 -855h640z" />
    <glyph glyph-name="product" unicode="&#x220f;" horiz-adv-x="1304" 
d="M1246 1233l-248 -1403h-260l248 1403h-430l-248 -1403h-260l248 1403h-130l41 232h1210l-41 -232h-130z" />
    <glyph glyph-name="summation" unicode="&#x2211;" horiz-adv-x="1075" 
d="M-68 -173l37 210l518 697l-300 539l34 192h935l-41 -232h-605l288 -495l-513 -679h662l-41 -232h-974z" />
    <glyph glyph-name="minus" unicode="&#x2212;" 
d="M1062 736v-201h-898v201h898z" />
    <glyph glyph-name="periodcentered" unicode="&#x2219;" horiz-adv-x="752" 
d="M392 831q63 0 106.5 -43.5t43.5 -106.5t-43.5 -107t-106.5 -44q-62 0 -106 44.5t-44 106.5t44 106t106 44z" />
    <glyph glyph-name="radical" unicode="&#x221a;" 
d="M790 1296l-384 -1296h-179l-236 290l146 119l131 -167l364 1229h582v-175h-424z" />
    <glyph glyph-name="infinity" unicode="&#x221e;" 
d="M595 529q-113 -127 -248 -127q-122 0 -199.5 74t-77.5 195q0 110 82 187.5t192 77.5q143 0 250 -113q107 113 255 113q118 0 195.5 -74t77.5 -191q0 -124 -82 -198q-78 -71 -204 -71q-130 0 -241 127zM695 672q87 -107 151 -107q110 0 110 106q0 49 -35 77.5t-85 28.5
q-32 0 -79 -39q-39 -32 -62 -66zM498 672q-96 105 -141 105q-120 0 -120 -106t110 -106q65 0 151 107z" />
    <glyph glyph-name="integral" unicode="&#x222b;" horiz-adv-x="1074" 
d="M-22 -297l100 142q77 -95 170 -95q77 0 121 86q36 70 36 155v1073q0 173 102 304q111 142 279 142q161 0 280 -102l-124 -142q-59 74 -166 74q-102 0 -135 -112q-17 -59 -17 -194v-1011q0 -177 -82 -301q-94 -142 -263 -142q-178 0 -301 123z" />
    <glyph glyph-name="approxequal" unicode="&#x2248;" 
d="M317 619h-146q19 106 66 176q61 91 154 91q73 0 293 -66q37 -11 73 -11q60 0 87 77h148q-32 -123 -70 -180q-59 -87 -161 -87q-78 0 -240 49q-96 28 -115 28q-52 0 -89 -77zM317 229h-146q19 106 66 176q61 91 154 91q73 0 293 -66q37 -11 73 -11q60 0 87 77h148
q-32 -123 -70 -180q-59 -87 -161 -87q-78 0 -240 49q-96 28 -115 28q-52 0 -89 -77z" />
    <glyph glyph-name="approxequal" unicode="&#x22f2;" 
d="M317 619h-146q19 106 66 176q61 91 154 91q73 0 293 -66q37 -11 73 -11q60 0 87 77h148q-32 -123 -70 -180q-59 -87 -161 -87q-78 0 -240 49q-96 28 -115 28q-52 0 -89 -77zM317 229h-146q19 106 66 176q61 91 154 91q73 0 293 -66q37 -11 73 -11q60 0 87 77h148
q-32 -123 -70 -180q-59 -87 -161 -87q-78 0 -240 49q-96 28 -115 28q-52 0 -89 -77z" />
    <glyph glyph-name="notequal" unicode="&#x2260;" 
d="M174 325v201h271l163 219h-434v201h584l116 155h189l-116 -155h125v-201h-275l-163 -219h438v-201h-588l-121 -162h-188l120 162h-121z" />
    <glyph glyph-name="lessequal" unicode="&#x2264;" 
d="M192 627v161l799 383v-228l-528 -236l528 -239v-228zM1062 201v-201h-898v201h898z" />
    <glyph glyph-name="greaterequal" unicode="&#x2265;" 
d="M1034 627l-799 -387v228l528 239l-528 236v228l799 -383v-161zM1062 0h-898v201h898v-201z" />
    <glyph glyph-name="lozenge" unicode="&#x25ca;" horiz-adv-x="1229" 
d="M613 18l-618 617l618 617l617 -617zM613 1004l-369 -369l369 -369l368 369z" />
    <glyph glyph-name="apple" unicode="&#xf000;" horiz-adv-x="1024" 
 />
    <glyph glyph-name="fi" unicode="&#xf001;" horiz-adv-x="1370" 
d="M1023 1415q0 68 47.5 112t115.5 44t115.5 -44.5t47.5 -111.5t-48 -111.5t-115 -44.5q-68 0 -115.5 44.5t-47.5 111.5zM1097 0h-254l162 870h-444l-160 -938q-26 -153 -140.5 -252t-269.5 -100l-53 166q71 16 128 71t70 125l167 928h-151l33 201h148q103 439 469 439
q104 0 177 -43l-50 -196q-81 36 -139 36q-144 0 -198 -236h705z" />
    <glyph glyph-name="fl" unicode="&#xf002;" horiz-adv-x="1320" 
d="M1217 84q-59 -94 -179 -94q-92 0 -144 61q-50 58 -50 151q0 120 48 351l139 669q-101 85 -241 85q-144 0 -198 -236h246l-25 -201h-252l-160 -938q-26 -153 -140.5 -252t-269.5 -100l-53 166q71 16 128 71t70 125l167 928h-151l33 201h148q103 439 469 439q63 0 143 -21
q91 -24 130 -58h1l17 79h248l-206 -997q-44 -213 -44 -304q0 -56 35 -90.5t91 -34.5z" />
    <glyph glyph-name="commaaccenthigh" unicode="&#xf005;" horiz-adv-x="752" 
d="M292 1048l-63 85q96 73 96 123q0 22 -34.5 60.5t-34.5 75.5q0 118 117 118q123 0 123 -139q0 -196 -204 -323z" />
    <glyph glyph-name="dotlessj" unicode="&#xf006;" horiz-adv-x="794" 
d="M512 15q-46 -250 -230 -352q-149 -83 -427 -83l11 221q257 0 338 88q45 50 60 132l152 849h-144l47 201h389z" />
    <glyph glyph-name="f007" unicode="&#xf007;" horiz-adv-x="752" 
d="M427 1715l77 -101q-95 -90 -95 -117q0 -23 37.5 -68t37.5 -93q0 -53 -39.5 -87t-93.5 -34q-128 0 -128 164q0 194 204 336z" />
    <glyph glyph-name="glyph302" horiz-adv-x="617" 
 />
    <glyph glyph-name="glyph303" horiz-adv-x="994" 
 />
    </font>
</defs>
</svg>
